<svg viewBox="0 0 16 16" width="16" height="16" xmlns="http://www.w3.org/2000/svg" fill="#fff" fill-opacity="1">
  <path d="M7.5 0 8.5 0Q9 0 9 .5L9 2 7 2 7 .5Q7 0 7.5 0M3 6Q4 1 8 1 11.75 1 12.5 4L14.25 12 14.75 12Q15.25 12 15.25 12.5 15.25 13 14.75 13L1.25 13Q.75 13 .75 12.5.75 12 1.25 12L1.75 12 3 6M11.5 4.25Q11 2 8 2 4.75 2 4 6L2.75 12 4 12 3 13 5 13 6 12 13.25 12 12 6 12.7625 5.1875 12.5 4 11.5 4.25M6 14 10 14Q10 16 8 16 6 16 6 14L6 14M.25 15 15 .25Q15.375-.125 15.75.25 16.125.625 15.75 1L1 15.75Q.625 16.125.25 15.75-.125 15.375.25 15"></path>
</svg>
