<svg viewBox="0 0 16 16" width="16" height="16" xmlns="http://www.w3.org/2000/svg" fill="#fff" fill-opacity="1">
  <path d="M2 3A1 1 90 018 3L8 8A1 1 90 012 8L2 3M3 3 3 8A1 1 90 007 8L7 3A1 1 90 003 3M0 8Q0 7.5.5 7.5 1 7.5 1 8A1 1 90 009 8Q9 7.5 9.5 7.5 10 7.5 10 8 10 12 5.5 13L5.5 15 7.5 15Q8 15 8 15.5 8 16 7.5 16L2.5 16Q2 16 2 15.5 2 15 2.5 15L4.5 15 4.5 13Q0 12 0 8M15.5 0 13.5 0Q13 0 13 .5L13 4.25A1 1 90 0011.75 7.25 1 1 90 0013 4.25L13 6 14 6 14 1 15.5 1Q16 1 16 .5 16 0 15.5 0"></path>
</svg>
