<svg viewBox="0 0 16 16" width="16" height="16" xmlns="http://www.w3.org/2000/svg" fill="#fff" fill-opacity="1">
  <path d="M3 12Q8 7 13 12 13.375 12.375 13 12.75 12.625 13.125 12.25 12.75 8 8.5 3.75 12.75 3.375 13.125 3 12.75 2.625 12.375 3 12M10 2 13 2Q16 2 16 5L16 13Q16 16 13 16L3 16Q0 16 0 13L0 3Q0 0 3 0L6 0C8.75 0 8 2 10 2M1 3 1 13Q1 15 3 15L13 15Q15 15 15 13L15 5Q15 3 13 3L10 3C7.25 3 8 1 6 1L3 1Q1 1 1 3M4 5.25 5 6.25 6 5.25Q6.375 4.875 6.75 5.25 7.125 5.625 6.75 6L5.75 7 6.75 8Q7.125 8.375 6.75 8.75 6.375 9.125 6 8.75L5 7.75 4 8.75Q3.625 9.125 3.25 8.75 2.875 8.375 3.25 8L4.25 7 3.25 6Q2.875 5.625 3.25 5.25 3.625 4.875 4 5.25M10 5.25 11 6.25 12 5.25Q12.375 4.875 12.75 5.25 13.125 5.625 12.75 6L11.75 7 12.75 8Q13.125 8.375 12.75 8.75 12.375 9.125 12 8.75L11 7.75 10 8.75Q9.625 9.125 9.25 8.75 8.875 8.375 9.25 8L10.25 7 9.25 6Q8.875 5.625 9.25 5.25 9.625 4.875 10 5.25"></path>
</svg>
