<svg viewBox="0 0 16 16" width="16" height="16" xmlns="http://www.w3.org/2000/svg" fill="#fff" fill-opacity="1">
  <path d="M2.5 5.25 4 6 12 6 13.5 5.25Q14 5 14.25 5.5 14.5 6 14 6.25L12 7.25 12 9 14.5 9Q15 9 15 9.5 15 10 14.5 10L12 10 12 11.75 14 12.75Q14.5 13 14.25 13.5 14 14 13.5 13.75L12 13Q12 16 8 16 4 16 4 13L2.5 13.75Q2 14 1.75 13.5 1.5 13 2 12.75L4 11.75 4 10 1.5 10Q1 10 1 9.5 1 9 1.5 9L4 9 4 7.25 2 6.25Q1.5 6 1.75 5.5 2 5 2.5 5.25M4 4.5Q4 2 8 2 12 2 12 4.5 12 5 11.5 5L4.5 5Q4 5 4 4.5M5 .5 6.25 3 5.25 3.5 4 1Q3.75.5 4.25.25 4.75 0 5 .5M12 1 10.75 3.5 9.75 3 11 .5Q11.25 0 11.75.25 12.25.5 12 1M6.5 9Q6 9 6 9.5 6 10 6.5 10L9.5 10Q10 10 10 9.5 10 9 9.5 9L6.5 9M6.5 13 9.5 13Q10 13 10 12.5 10 12 9.5 12L6.5 12Q6 12 6 12.5 6 13 6.5 13M5 7 5 13Q5 15 8 15 11 15 11 13L11 7 5 7"></path>
</svg>
