<svg viewBox="0 0 16 16" width="16" height="16" xmlns="http://www.w3.org/2000/svg" fill="#fff" fill-opacity="1">
  <path d="M1 7 4 7Q5 7 5 8L5 10Q5 11 6 11L10 11Q11 11 11 10L11 8Q11 7 12 7L15 7Q16 7 16 8L16 10Q16 14 10 14L6 14Q0 14 0 10L0 8Q0 7 1 7M1 8 1 10Q1 13 6 13L10 13Q15 13 15 10L15 8 12 8 12 10Q12 12 10 12L6 12Q4 12 4 10L4 8 1 8M11.5 3.5 9 1Q8.625.625 8.25 1 7.875 1.375 8.25 1.75L10 3.5 4.5 3.5Q4 3.5 4 4 4 4.5 4.5 4.5L10 4.5 8.25 6.25Q7.875 6.625 8.25 7 8.625 7.375 9 7L11.5 4.5Q12 4 11.5 3.5"></path>
</svg>
