<svg viewBox="0 0 16 16" width="16" height="16" xmlns="http://www.w3.org/2000/svg" fill="#fff" fill-opacity="1">
  <path d="M1 7 4 7Q5 7 5 8L5 10Q5 11 6 11L10 11Q11 11 11 10L11 8Q11 7 12 7L15 7Q16 7 16 8L16 10Q16 14 10 14L6 14Q0 14 0 10L0 8Q0 7 1 7M1 8 1 10Q1 13 6 13L10 13Q15 13 15 10L15 8 12 8 12 10Q12 12 10 12L6 12Q4 12 4 10L4 8 1 8M4.5 3.5 7 1Q7.375.625 7.75 1 8.125 1.375 7.75 1.75L6 3.5 11.5 3.5Q12 3.5 12 4 12 4.5 11.5 4.5L6 4.5 7.75 6.25Q8.125 6.625 7.75 7 7.375 7.375 7 7L4.5 4.5Q4 4 4.5 3.5"></path>
</svg>
