<svg viewBox="0 0 16 16" width="16" height="16" xmlns="http://www.w3.org/2000/svg" fill="#fff" fill-opacity="1">
  <path d="M8.5.5 10.5 4.5Q10.75 5 11.5 5L14.5 5Q16.5 5 15 6.5L12.5 8.75Q11.875 9.25 12 10L13 14Q13.25 15.25 12 14.5L8.5 12.5Q8 12.25 7.5 12.5L4 14.5Q2.75 15.25 3 14L4 10Q4.125 9.25 3.5 8.75L1 6.5Q-.5 5 1.5 5L4.5 5Q5.25 5 5.5 4.5L7.5.5Q8-.5 8.5.5M8 1.75 6.5 5Q6 6 5 6L1.875 6 4.5 8.25Q5.25 9 5 10L4.25 13.125 7 11.5Q8 11 9 11.5L11.75 13.125 11 10Q10.75 9 11.5 8.25L14.125 6 11 6Q10 6 9.5 5L8 1.75"></path>
</svg>
