<svg viewBox="0 0 16 16" width="16" height="16" xmlns="http://www.w3.org/2000/svg" fill="#fff" fill-opacity="1">
  <path d="M1 4 1 2Q1 0 3 0L13 0Q15 0 15 2L15 4 14 4 14 2Q14 1 13 1L3 1Q2 1 2 2L2 4 1 4M1 9 1 7Q1 5 3 5L13 5Q15 5 15 7L15 9 14 9 14 7Q14 6 13 6L3 6Q2 6 2 7L2 9 1 9M3 10 13 10Q15 10 15 12L15 14Q15 16 13 16L3 16Q1 16 1 14L1 12Q1 10 3 10M2 12 2 14Q2 15 3 15L13 15Q14 15 14 14L14 12Q14 11 13 11L3 11Q2 11 2 12M4 12A1 1 0 004 14 1 1 0 004 12M4 7A1 1 0 004 9 1 1 0 004 7M4 2A1 1 0 004 4 1 1 0 004 2"></path>
</svg>
