<svg viewBox="0 0 16 16" width="16" height="16" xmlns="http://www.w3.org/2000/svg" fill="#fff" fill-opacity="1">
  <path d="M0 12 0 8A1 1 0 0116 8L16 8 15 8A1 1 0 001 8L1 12 0 12M15 9 16 9 16 12 15 12 15 9M14 14 14 8A1 1 0 002 8L2 10 3 10 3 8A1 1 0 0113 8L13 14 14 14M2 11 3 11 3 14 2 14 2 11M4 11 4 8A1 1 0 0112 8L12 9 11 9 11 8A1 1 0 005 8L5 11 4 11M11 10 12 10 12 15 11 15 11 10M4 12 5 12 5 15 4 15 4 12M6 16 6 14 7 14 7 16 6 16M6 13 6 10 7 10 7 13 6 13M6 9 6 8A1 1 0 0110 8L10 12 9 12 9 8A1 1 0 007 8L7 9 6 9M9 13 10 13 10 16 9 16 9 13"></path>
</svg>
