<svg viewBox="0 0 16 16" width="16" height="16" xmlns="http://www.w3.org/2000/svg" fill="#fff" fill-opacity="1">
  <path d="M2.5.5 5.5.5Q7.5.5 7.5 2.5L7.5 5.5Q7.5 7.5 5.5 7.5L2.5 7.5Q.5 7.5.5 5.5L.5 2.5Q.5.5 2.5.5M1.5 2.5 1.5 5.5Q1.5 6.5 2.5 6.5L5.5 6.5Q6.5 6.5 6.5 5.5L6.5 2.5Q6.5 1.5 5.5 1.5L2.5 1.5Q1.5 1.5 1.5 2.5M2.5 8.5 5.5 8.5Q7.5 8.5 7.5 10.5L7.5 13.5Q7.5 15.5 5.5 15.5L2.5 15.5Q.5 15.5.5 13.5L.5 10.5Q.5 8.5 2.5 8.5M1.5 10.5 1.5 13.5Q1.5 14.5 2.5 14.5L5.5 14.5Q6.5 14.5 6.5 13.5L6.5 10.5Q6.5 9.5 5.5 9.5L2.5 9.5Q1.5 9.5 1.5 10.5M10.5 8.5 13.5 8.5Q15.5 8.5 15.5 10.5L15.5 13.5Q15.5 15.5 13.5 15.5L10.5 15.5Q8.5 15.5 8.5 13.5L8.5 10.5Q8.5 8.5 10.5 8.5M9.5 10.5 9.5 13.5Q9.5 14.5 10.5 14.5L13.5 14.5Q14.5 14.5 14.5 13.5L14.5 10.5Q14.5 9.5 13.5 9.5L10.5 9.5Q9.5 9.5 9.5 10.5M10.5.5 13.5.5Q15.5.5 15.5 2.5L15.5 5.5Q15.5 7.5 13.5 7.5L10.5 7.5Q8.5 7.5 8.5 5.5L8.5 2.5Q8.5.5 10.5.5M9.5 2.5 9.5 5.5Q9.5 6.5 10.5 6.5L13.5 6.5Q14.5 6.5 14.5 5.5L14.5 2.5Q14.5 1.5 13.5 1.5L10.5 1.5Q9.5 1.5 9.5 2.5"></path>
</svg>
