<svg viewBox="0 0 16 16" width="16" height="16" xmlns="http://www.w3.org/2000/svg" fill="#fff" fill-opacity="1">
  <path d="M.5 9 1 9 4 1.25Q5-1.25 6 1.25L8.75 9 8.325 10 7.5 10Q7 10 7 9.5 7 9 7.5 9L7.75 9 5 1.75 2.25 9 2.5 9Q3 9 3 9.5 3 10 2.5 10L.5 10Q0 10 0 9.5 0 9 .5 9M3 6 7 6 7 7 3 7 3 6M6.5 15 7 15 10 7.25Q11 4.75 12 7.25L15 15 15.5 15Q16 15 16 15.5 16 16 15.5 16L13.5 16Q13 16 13 15.5 13 15 13.5 15L13.75 15 11 7.75 8.25 15 8.5 15Q9 15 9 15.5 9 16 8.5 16L6.5 16Q6 16 6 15.5 6 15 6.5 15M9 12 13 12 13 13 9 13 9 12"></path>
</svg>
