<svg viewBox="0 0 16 16" width="16" height="16" xmlns="http://www.w3.org/2000/svg" fill="#fff" fill-opacity="1">
  <path d="M3 0 13 0Q16 0 16 3L16 13Q16 16 13 16L3 16Q0 16 0 13L0 3Q0 0 3 0M0 6.5Q0 6 .5 6 1 6 1 6.5L1 9.5Q1 10 .5 10 0 10 0 9.5L0 11.5Q0 11 .5 11 1 11 1 11.5L1 13Q1 15 3 15L4.5 15Q5 15 5 15.5 5 16 4.5 16L6.5 16Q6 16 6 15.5 6 15 6.5 15L9.5 15Q10 15 10 15.5 10 16 9.5 16L11.5 16Q11 16 11 15.5 11 15 11.5 15L13 15Q15 15 15 13L15 11.5Q15 11 15.5 11 16 11 16 11.5L16 9.5Q16 10 15.5 10 15 10 15 9.5L15 6.5Q15 6 15.5 6 16 6 16 6.5L16 4.5Q16 5 15.5 5 15 5 15 4.5L15 3Q15 1 13 1L11.5 1Q11 1 11 .5 11 0 11.5 0L9.5 0Q10 0 10 .5 10 1 9.5 1L6.5 1Q6 1 6 .5 6 0 6.5 0L4.5 0Q5 0 5 .5 5 1 4.5 1L3 1Q1 1 1 3L1 4.5Q1 5 .5 5 0 5 0 4.5L0 6.5"></path>
</svg>
