<svg viewBox="0 0 16 16" width="16" height="16" xmlns="http://www.w3.org/2000/svg" fill="#fff" fill-opacity="1">
  <path d="M0 9 1 9 5 0 9 9 10 9 10 10 7 10 7 9 7.75 9 5 2.5 2.25 9 3 9 3 10 0 10 0 9M3 6 7 6 7 7 3 7 3 6M15 13.25 15 6.75 14 7 14 14 14.25 14 15 13.25M13.25 6 16 6 15.75 5 14 5Q13 3 15 3 16 3 16 4L15 4Q14 4 15 5L13 5 13.25 6M12.75 11Q13 11.75 13 13 13 14 12 14L7 14Q6 14 6 13 6 11.75 7 11L7.375 11.5Q7 12.25 7 12.75L12 12.75Q12 12.25 11.8 11.5L12.75 11M9.5 14.5 8.75 15.25 9.5 16 10.25 15.25 9.5 14.5"></path>
</svg>
