<svg viewBox="0 0 16 16" width="16" height="16" xmlns="http://www.w3.org/2000/svg" fill="#fff" fill-opacity="1">
  <path d="M2 14Q2 15 3 15L4.33 15Q5.33 15 5.33 14L5.33 11Q5.33 9 7.33 9L8.66 9Q10.66 9 10.66 11L10.66 14Q10.66 15 11.66 15L13 15Q14 15 14 14L14 7.25Q14 6.5 13.5 6L8 1.25 2.5 6Q2 6.5 2 7.25L2 14M15 7.25 15 14Q15 16 13 16L11.66 16Q9.66 16 9.66 14L9.66 11Q9.66 10 8.66 10L7.33 10Q6.33 10 6.33 11L6.33 14Q6.33 16 4.33 16L3 16Q1 16 1 14L1 7.25Q1 6 1.75 5.25L7.25.5Q8-.25 8.75.5L14.25 5.25Q15 6 15 7.25"></path>
</svg>
