<?xml version="1.0" encoding="iso-8859-1"?>
<!-- Generator: Adobe Illustrator 19.0.0, SVG Export Plug-In . SVG Version: 6.00 Build 0)  -->
<svg version="1.1" id="Layer_1" xmlns="http://www.w3.org/2000/svg" xmlns:xlink="http://www.w3.org/1999/xlink" x="0px" y="0px"
	 viewBox="0 0 512 512" style="enable-background:new 0 0 512 512;" xml:space="preserve">
<g>
	<g>
		<path d="M480.993,231.325c-35.645-51.038-75.825-60.827-136.352-83.016l-30.946,64.312c-4.085,8.488-14.279,12.068-22.779,7.979
			c-8.494-4.087-12.065-14.286-7.979-22.779l29.505-61.316l-18.959-6.951l-30.946,64.313c-4.085,8.488-14.279,12.068-22.779,7.979
			c-8.493-4.087-12.065-14.286-7.979-22.779l29.505-61.317l-43.77-16.046c-10.733-3.934-22.253,3.611-22.913,15.039
			c-1.79,30.967-27.516,55.223-58.567,55.223c-27.259,0-50.724-18.479-57.062-44.934c-4.343-18.138-20.246-30.808-38.67-30.808
			h-0.614C17.803,96.224,0,114.027,0,135.91v32.503l144.386,144.386H96.115L0,216.684c0,8.737,0,176.259,0,182.025
			c0,9.425,7.641,17.067,17.067,17.067h477.867c9.425,0,17.067-7.641,17.067-17.067v-68.844
			C512,294.432,501.278,260.357,480.993,231.325z M380.689,197.75c25.27,9.508,50.608,22.031,72.322,53.121
			c12.973,18.569,21.067,39.713,23.81,61.928h-96.132V197.75z M477.867,381.642H34.133v-34.709c19.177,0,435.755,0,443.733,0
			V381.642z" fill="#fff"/>
	</g>
</g>
<g>
</g>
<g>
</g>
<g>
</g>
<g>
</g>
<g>
</g>
<g>
</g>
<g>
</g>
<g>
</g>
<g>
</g>
<g>
</g>
<g>
</g>
<g>
</g>
<g>
</g>
<g>
</g>
<g>
</g>
</svg>
