<svg viewBox="0 0 16 16" width="16" height="16" xmlns="http://www.w3.org/2000/svg" fill="#fff" fill-opacity="1">
  <path d="M5.5 4 3.5 4Q1.5 4 1.5 6L1.5 10Q1.5 12 3.5 12L5.5 12 8 14.5Q10.5 17 10.5 13.5L10.5 2.5Q10.5-.75 8 1.5L5.5 4 5.5 4M12 4.75Q15.25 8 12 11.25 11.625 11.625 12 12 12.375 12.375 12.75 12 16.75 8 12.75 4 12.375 3.625 12 4 11.625 4.375 12 4.75M9.5 2.5 9.5 13.5Q9.5 14.5 8.75 13.75L6.25 11.25Q6 11 5.5 11L3.5 11Q2.5 11 2.5 10L2.5 6Q2.5 5 3.5 5L5.5 5Q6 5 6.25 4.75L8.75 2.25Q9.5 1.5 9.5 2.5"></path>
</svg>
