<svg viewBox="0 0 16 16" width="16" height="16" xmlns="http://www.w3.org/2000/svg" fill="#fff" fill-opacity="1">
  <style>
    .ac-color {
      fill: #fff;
    }
    .ac-color1 {
      fill: #c00040;
    }
  </style>
  <path d="M.25 15 15 .25Q15.375-.125 15.75.25 16.125.625 15.75 1L1 15.75Q.625 16.125.25 15.75-.125 15.375.25 15M4 6 10 6 9 7 4 7Q3 7 3 8L3 13 2 14 2 8Q2 6 4 6M4 6 4 4A1 1 0 0112 4L11 5 11 4A1 1 0 005 4L5 6 4 6M3.25 14.75Q3.5 15 4 15L12 15Q13 15 13 14L13 8Q13 7 12 7L11 7 12 6Q14 6 14 8L14 14Q14 16 12 16L4 16Q3 16 2.5 15.5L3.25 14.75"></path>
</svg>
