<svg viewBox="0 0 16 16" width="16" height="16" xmlns="http://www.w3.org/2000/svg" fill="#fff" fill-opacity="1">
  <path d="M4 1 12 1Q15 1 15 4L15 12Q15 15 12 15L4 15Q1 15 1 12L1 4Q1 1 4 1M2 6 2 12Q2 14 4 14L12 14Q14 14 14 12L14 6 2 6M2 4 2 5 14 5 14 4Q14 2 12 2L4 2Q2 2 2 4M3.5 7 7.5 7Q8 7 8 7.5 8 8 7.5 8L3.5 8Q3 8 3 7.5 3 7 3.5 7M3.5 9 7.5 9Q8 9 8 9.5 8 10 7.5 10L3.5 10Q3 10 3 9.5 3 9 3.5 9M3.5 11 6 11Q6.5 11 6.5 11.5 6.5 12 6 12L3.5 12Q3 12 3 11.5 3 11 3.5 11M10 7 12 7Q13 7 13 8L13 10Q13 11 12 11L10 11Q9 11 9 10L9 8Q9 7 10 7"></path>
</svg>
