<svg viewBox="0 0 16 16" width="16" height="16" xmlns="http://www.w3.org/2000/svg" fill="#fff" fill-opacity="1">
  <path d="M2 1 14 1Q16 1 16 3L16 4Q16 6 14 6L14 5 15 5 15 14Q15 16 13 16L3 16Q1 16 1 14L1 5 2 5 2 6Q0 6 0 4 0 1 2 1M2 2Q1 2 1 3L1 4Q1 5 2 5L14 5Q15 5 15 4L15 3Q15 2 14 2L2 2M2 6 2 14Q2 15 3 15L13 15Q14 15 14 14L14 6 2 6M3 .5Q3 0 3.5 0 4 0 4 .5L4 2.5Q4 3 3.5 3 3 3 3 2.5L3 .5M12 .5Q12 0 12.5 0 13 0 13 .5L13 2.5Q13 3 12.5 3 12 3 12 2.5L12 .5M4 7.5 6 7.5 6 13.5 5 13.5 5 8.5 4 8.5 4 7.5M9.5 7.5Q12 7.5 12 9.25 12 10.5 11 10.5 12 10.5 12 11.75 12 13.5 9.5 13.5 7 13.5 7 11.5L8 11.5Q8 12.5 9.5 12.5 11 12.5 11 11.75 11 11 10 11L9 11 9 10 10 10Q11 10 11 9.25 11 8.5 9.5 8.5 8 8.5 8 9.5L8 9.5 7 9.5Q7 7.5 9.5 7.5"></path>
</svg>
