<svg viewBox="0 0 16 16" width="16" height="16" xmlns="http://www.w3.org/2000/svg" fill="#fff" fill-opacity="1">
  <path d="M4 4 2 4Q0 4 0 6L0 10Q0 12 2 12L4 12 6.5 14.5Q9 17 9 13.5L9 2.5Q9-.75 6.5 1.5L4 4 4 4M10.5 4.75Q13.75 8 10.5 11.25 10.125 11.625 10.5 12 10.875 12.375 11.25 12 15.25 8 11.25 4 10.875 3.625 10.5 4 10.125 4.375 10.5 4.75M12 2.75Q17.75 8 12 13.25 11.625 13.625 12 14 12.375 14.375 12.75 14 19.25 8 12.75 2 12.375 1.625 12 2 11.625 2.375 12 2.75M8 2.5 8 13.5Q8 14.5 7.25 13.75L4.75 11.25Q4.5 11 4 11L2 11Q1 11 1 10L1 6Q1 5 2 5L4 5Q4.5 5 4.75 4.75L7.25 2.25Q8 1.5 8 2.5"></path>
</svg>
