<?xml version="1.0" encoding="UTF-8" standalone="no"?>
<!-- Generator: Adobe Illustrator 24.1.0, SVG Export Plug-In . SVG Version: 6.00 Build 0)  -->

<svg
   version="1.1"
   id="Layer_1"
   x="0px"
   y="0px"
   viewBox="0 0 40 40"
   style="enable-background:new 0 0 40 40;"
   xml:space="preserve"
   sodipodi:docname="facebook.svg"
   inkscape:version="1.1.2 (0a00cf5339, 2022-02-04)"
   xmlns:inkscape="http://www.inkscape.org/namespaces/inkscape"
   xmlns:sodipodi="http://sodipodi.sourceforge.net/DTD/sodipodi-0.dtd"
   xmlns="http://www.w3.org/2000/svg"
   xmlns:svg="http://www.w3.org/2000/svg"><defs
   id="defs16"><filter
     style="color-interpolation-filters:sRGB;"
     inkscape:label="Drop Shadow"
     id="filter843"
     x="-0.069767442"
     y="-0.037267081"
     width="1.1395349"
     height="1.0900621"><feFlood
       flood-opacity="0.25098"
       flood-color="rgb(0,0,0)"
       result="flood"
       id="feFlood833" /><feComposite
       in="flood"
       in2="SourceGraphic"
       operator="in"
       result="composite1"
       id="feComposite835" /><feGaussianBlur
       in="composite1"
       stdDeviation="1.25"
       result="blur"
       id="feGaussianBlur837" /><feOffset
       dx="0"
       dy="1.25"
       result="offset"
       id="feOffset839" /><feComposite
       in="SourceGraphic"
       in2="offset"
       operator="over"
       result="composite2"
       id="feComposite841" /></filter></defs><sodipodi:namedview
   id="namedview14"
   pagecolor="#ffffff"
   bordercolor="#666666"
   borderopacity="1.0"
   inkscape:pageshadow="2"
   inkscape:pageopacity="0.0"
   inkscape:pagecheckerboard="0"
   showgrid="false"
   inkscape:zoom="16.15"
   inkscape:cx="20.526316"
   inkscape:cy="31.671827"
   inkscape:window-width="1600"
   inkscape:window-height="831"
   inkscape:window-x="0"
   inkscape:window-y="32"
   inkscape:window-maximized="1"
   inkscape:current-layer="Layer_1" />
<style
   type="text/css"
   id="style2">
	.st0{fill:url(#SVGID_1_);}
	.st1{fill:#FFFFFF;}
</style>
<linearGradient
   id="SVGID_1_"
   gradientUnits="userSpaceOnUse"
   x1="-277.375"
   y1="406.6018"
   x2="-277.375"
   y2="407.5726"
   gradientTransform="matrix(40 0 0 -39.7778 11115.001 16212.334)">
	<stop
   offset="0"
   style="stop-color:#0062E0"
   id="stop4" />
	<stop
   offset="1"
   style="stop-color:#19AFFF"
   id="stop6" />
</linearGradient>
<path
   class="st0"
   d="M16.7,39.8C7.2,38.1,0,29.9,0,20C0,9,9,0,20,0s20,9,20,20c0,9.9-7.2,18.1-16.7,19.8l-1.1-0.9h-4.4L16.7,39.8z"
   id="path9" />
<path
   class="st1"
   d="M27.8,25.6l0.9-5.6h-5.3v-3.9c0-1.6,0.6-2.8,3-2.8h2.6V8.2c-1.4-0.2-3-0.4-4.4-0.4c-4.6,0-7.8,2.8-7.8,7.8V20  h-5v5.6h5v14.1c1.1,0.2,2.2,0.3,3.3,0.3c1.1,0,2.2-0.1,3.3-0.3V25.6H27.8z"
   id="path11"
   style="filter:url(#filter843)" />
</svg>
