<?xml version="1.0" encoding="UTF-8" standalone="no"?>
<svg
   viewBox="0 0 16 16"
   width="16"
   height="16"
   version="1.1"
   id="svg18"
   sodipodi:docname="Keyboard.svg"
   inkscape:version="1.1.2 (0a00cf5339, 2022-02-04)"
   xmlns:inkscape="http://www.inkscape.org/namespaces/inkscape"
   xmlns:sodipodi="http://sodipodi.sourceforge.net/DTD/sodipodi-0.dtd"
   xmlns="http://www.w3.org/2000/svg"
   xmlns:svg="http://www.w3.org/2000/svg"
   xmlns:rdf="http://www.w3.org/1999/02/22-rdf-syntax-ns#"
   xmlns:cc="http://creativecommons.org/ns#"
   xmlns:dc="http://purl.org/dc/elements/1.1/">
  <metadata
     id="metadata24">
    <rdf:RDF>
      <cc:Work
         rdf:about="">
        <dc:format>image/svg+xml</dc:format>
        <dc:type
           rdf:resource="http://purl.org/dc/dcmitype/StillImage" />
      </cc:Work>
    </rdf:RDF>
  </metadata>
  <defs
     id="defs22">
    <filter
       style="color-interpolation-filters:sRGB;"
       inkscape:label="Drop Shadow"
       id="filter856">
      <feFlood
         flood-opacity="0.25098"
         flood-color="rgb(0,0,0)"
         result="flood"
         id="feFlood846" />
      <feComposite
         in="flood"
         in2="SourceGraphic"
         operator="in"
         result="composite1"
         id="feComposite848" />
      <feGaussianBlur
         in="composite1"
         stdDeviation="0.5"
         result="blur"
         id="feGaussianBlur850" />
      <feOffset
         dx="0"
         dy="0.5"
         result="offset"
         id="feOffset852" />
      <feComposite
         in="SourceGraphic"
         in2="offset"
         operator="over"
         result="composite2"
         id="feComposite854" />
    </filter>
    <filter
       style="color-interpolation-filters:sRGB;"
       inkscape:label="Drop Shadow"
       id="filter836">
      <feFlood
         flood-opacity="0.25098"
         flood-color="rgb(255,255,255)"
         result="flood"
         id="feFlood826" />
      <feComposite
         in="flood"
         in2="SourceGraphic"
         operator="out"
         result="composite1"
         id="feComposite828" />
      <feGaussianBlur
         in="composite1"
         stdDeviation="0.5"
         result="blur"
         id="feGaussianBlur830" />
      <feOffset
         dx="0"
         dy="0.5"
         result="offset"
         id="feOffset832" />
      <feComposite
         in="offset"
         in2="SourceGraphic"
         operator="atop"
         result="composite2"
         id="feComposite834" />
    </filter>
    <filter
       style="color-interpolation-filters:sRGB;"
       inkscape:label="Drop Shadow"
       id="filter37"
       x="-0.085714286"
       y="-0.10909091"
       width="1.1714286"
       height="1.2636364">
      <feFlood
         flood-opacity="0.25098"
         flood-color="rgb(0,0,0)"
         result="flood"
         id="feFlood27" />
      <feComposite
         in="flood"
         in2="SourceGraphic"
         operator="in"
         result="composite1"
         id="feComposite29" />
      <feGaussianBlur
         in="composite1"
         stdDeviation="0.5"
         result="blur"
         id="feGaussianBlur31" />
      <feOffset
         dx="0"
         dy="0.5"
         result="offset"
         id="feOffset33" />
      <feComposite
         in="SourceGraphic"
         in2="offset"
         operator="over"
         result="composite2"
         id="feComposite35" />
    </filter>
  </defs>
  <sodipodi:namedview
     pagecolor="#ffffff"
     bordercolor="#666666"
     borderopacity="1"
     objecttolerance="10"
     gridtolerance="10"
     guidetolerance="10"
     inkscape:pageopacity="0"
     inkscape:pageshadow="2"
     inkscape:window-width="846"
     inkscape:window-height="480"
     id="namedview20"
     showgrid="false"
     inkscape:zoom="14.75"
     inkscape:cx="-5.2542373"
     inkscape:cy="6.3728814"
     inkscape:window-x="0"
     inkscape:window-y="0"
     inkscape:window-maximized="0"
     inkscape:current-layer="svg18"
     inkscape:pagecheckerboard="0" />
  <linearGradient
     id="g0"
     x1="0%"
     y1="0%"
     x2="100%"
     y2="100%">
    <stop
       offset="0%"
       style="stop-color:#c0ced5;stop-opacity:1"
       id="stop2" />
    <stop
       offset="100%"
       style="stop-color:#70848e;stop-opacity:1"
       id="stop4" />
  </linearGradient>
  <linearGradient
     id="g1"
     x1="0%"
     y1="0%"
     x2="100%"
     y2="100%">
    <stop
       offset="0%"
       style="stop-color:#e7e9ec;stop-opacity:1"
       id="stop7" />
    <stop
       offset="100%"
       style="stop-color:#b0d0ff;stop-opacity:1"
       id="stop9" />
  </linearGradient>
  <style
     id="style12">
    .ac-color {
      fill: url(#g0);
    }
    .ac-color1 {
      fill: url(#g1);
    }
  </style>
  <path
     d="M1 1 15 1Q16 1 16 2L16 13Q16 14 15 14L1 14Q0 14 0 13L0 2Q0 1 1 1"
     class="ac-color"
     id="path14" />
  <path
     d="M2 2A1 1 0 002 4 1 1 0 002 2M5 2A1 1 0 005 4 1 1 0 005 2M8 2A1 1 0 008 4 1 1 0 008 2M11 2A1 1 0 0011 4 1 1 0 0011 2M14 2A1 1 0 0014 4 1 1 0 0014 2M2 5A1 1 0 002 7L3 7A1 1 0 003 5L2 5M6 5A1 1 0 006 7 1 1 0 006 5M9 5A1 1 0 009 7 1 1 0 009 5M12 5A1 1 0 0012 7L14 7A1 1 0 0014 5L12 5M2 8A1 1 0 002 10L4 10A1 1 0 004 8L2 8M7 8A1 1 0 007 10 1 1 0 007 8M10 8A1 1 0 0010 10 1 1 0 0010 8M13 8A1 1 0 0013 10L14 10A1 1 0 0014 8L13 8M2 11A1 1 0 002 13 1 1 0 002 11M5 11A1 1 0 005 13L11 13A1 1 0 0011 11L5 11M14 11A1 1 0 0014 13 1 1 0 0014 11"
     class="ac-color1"
     id="path16"
     style="filter:url(#filter37)" />
</svg>
