<?xml version="1.0" encoding="UTF-8" standalone="no"?>
<svg
   viewBox="0 0 16 16"
   width="16"
   height="16"
   version="1.1"
   id="svg18"
   sodipodi:docname="browser.svg"
   inkscape:version="1.1.2 (0a00cf5339, 2022-02-04)"
   xmlns:inkscape="http://www.inkscape.org/namespaces/inkscape"
   xmlns:sodipodi="http://sodipodi.sourceforge.net/DTD/sodipodi-0.dtd"
   xmlns="http://www.w3.org/2000/svg"
   xmlns:svg="http://www.w3.org/2000/svg">
  <defs
     id="defs22">
    <filter
       style="color-interpolation-filters:sRGB;"
       inkscape:label="Drop Shadow"
       id="filter34"
       x="-0.092307692"
       y="-0.092307692"
       width="1.1846154"
       height="1.2230769">
      <feFlood
         flood-opacity="0.25098"
         flood-color="rgb(0,0,0)"
         result="flood"
         id="feFlood24" />
      <feComposite
         in="flood"
         in2="SourceGraphic"
         operator="in"
         result="composite1"
         id="feComposite26" />
      <feGaussianBlur
         in="composite1"
         stdDeviation="0.5"
         result="blur"
         id="feGaussianBlur28" />
      <feOffset
         dx="0"
         dy="0.5"
         result="offset"
         id="feOffset30" />
      <feComposite
         in="SourceGraphic"
         in2="offset"
         operator="over"
         result="composite2"
         id="feComposite32" />
    </filter>
  </defs>
  <sodipodi:namedview
     id="namedview20"
     pagecolor="#ffffff"
     bordercolor="#666666"
     borderopacity="1.0"
     inkscape:pageshadow="2"
     inkscape:pageopacity="0.0"
     inkscape:pagecheckerboard="0"
     showgrid="false"
     inkscape:zoom="36.8125"
     inkscape:cx="8"
     inkscape:cy="8"
     inkscape:window-width="1600"
     inkscape:window-height="823"
     inkscape:window-x="0"
     inkscape:window-y="0"
     inkscape:window-maximized="1"
     inkscape:current-layer="svg18" />
  <linearGradient
     id="g0"
     x1="0%"
     y1="0%"
     x2="100%"
     y2="100%">
    <stop
       offset="0%"
       style="stop-color:#60ff80;stop-opacity:1"
       id="stop2" />
    <stop
       offset="100%"
       style="stop-color:#207040;stop-opacity:1"
       id="stop4" />
  </linearGradient>
  <linearGradient
     id="g1"
     x1="0%"
     y1="0%"
     x2="100%"
     y2="100%">
    <stop
       offset="0%"
       style="stop-color:#fefefe;stop-opacity:1"
       id="stop7" />
    <stop
       offset="100%"
       style="stop-color:#d1d5d9;stop-opacity:1"
       id="stop9" />
  </linearGradient>
  <style
     id="style12">
    .ac-color {
      fill: url(#g0);
    }
    .ac-color1 {
      fill: url(#g1);
    }
  </style>
  <path
     d="M8 0Q16 0 16 8 16 16 8 16 0 16 0 8 0 0 8 0"
     class="ac-color"
     id="path14" />
  <path
     d="M8.75 3.75 12 7Q13 8 11.5 8L11 8Q10 8 10 9L10 12Q10 13 9 13L7 13Q6 13 6 12L6 9Q6 8 5 8L4.5 8Q3 8 4 7L7.25 3.75Q8 3 8.75 3.75"
     class="ac-color1"
     id="path16"
     style="filter:url(#filter34)" />
</svg>
