<?xml version="1.0" encoding="UTF-8" standalone="no"?>
<svg
   id="Layer_1"
   data-name="Layer 1"
   viewBox="0 0 124.08 123.51"
   version="1.1"
   sodipodi:docname="youtube.svg"
   inkscape:version="1.1.2 (0a00cf5339, 2022-02-04)"
   xmlns:inkscape="http://www.inkscape.org/namespaces/inkscape"
   xmlns:sodipodi="http://sodipodi.sourceforge.net/DTD/sodipodi-0.dtd"
   xmlns="http://www.w3.org/2000/svg"
   xmlns:svg="http://www.w3.org/2000/svg">
  <sodipodi:namedview
     id="namedview17"
     pagecolor="#ffffff"
     bordercolor="#666666"
     borderopacity="1.0"
     inkscape:pageshadow="2"
     inkscape:pageopacity="0.0"
     inkscape:pagecheckerboard="0"
     showgrid="false"
     inkscape:zoom="5.2303456"
     inkscape:cx="62.041789"
     inkscape:cy="61.850597"
     inkscape:window-width="1600"
     inkscape:window-height="831"
     inkscape:window-x="0"
     inkscape:window-y="32"
     inkscape:window-maximized="1"
     inkscape:current-layer="Layer_1" />
  <defs
     id="defs4">
    <style
       id="style2">.cls-1{fill:#fff;}.cls-1,.cls-3{fill-rule:evenodd;}.cls-2{fill:#999;}.cls-3{fill:red;}</style>
    <filter
       style="color-interpolation-filters:sRGB;"
       inkscape:label="Drop Shadow"
       id="filter874"
       x="-0.10692255"
       y="-0.15202209"
       width="1.2138451"
       height="1.3673867">
      <feFlood
         flood-opacity="0.25098"
         flood-color="rgb(0,0,0)"
         result="flood"
         id="feFlood864" />
      <feComposite
         in="flood"
         in2="SourceGraphic"
         operator="in"
         result="composite1"
         id="feComposite866" />
      <feGaussianBlur
         in="composite1"
         stdDeviation="3.9"
         result="blur"
         id="feGaussianBlur868" />
      <feOffset
         dx="0"
         dy="3.9"
         result="offset"
         id="feOffset870" />
      <feComposite
         in="SourceGraphic"
         in2="offset"
         operator="over"
         result="composite2"
         id="feComposite872" />
    </filter>
  </defs>
  <title
     id="title6">youtube-app</title>
  <path
     class="cls-1"
     d="M28.35.6H95.73a27.83,27.83,0,0,1,27.75,27.75V95.17a27.83,27.83,0,0,1-27.75,27.74H28.35A27.83,27.83,0,0,1,.6,95.17V28.35A27.83,27.83,0,0,1,28.35.6Z"
     id="path8" />
  <path
     class="cls-2"
     d="M28.35,0H95.73a28.44,28.44,0,0,1,28.35,28.35V95.17a28.42,28.42,0,0,1-28.35,28.34H28.35A28.42,28.42,0,0,1,0,95.17V28.35A28.44,28.44,0,0,1,28.35,0ZM95.73,1.2H28.35A27.21,27.21,0,0,0,1.2,28.35V95.17a27.21,27.21,0,0,0,27.15,27.14H95.73a27.21,27.21,0,0,0,27.15-27.14V28.35A27.21,27.21,0,0,0,95.73,1.2Z"
     id="path10" />
  <path
     class="cls-3"
     d="M104.91,44.26s-.85-6-3.48-8.69c-3.33-3.48-7.07-3.5-8.77-3.71C80.42,31,62,31,62,31h0s-18.37,0-30.62.89c-1.71.21-5.44.23-8.77,3.71-2.63,2.65-3.47,8.69-3.47,8.69a133.12,133.12,0,0,0-.87,14.17v6.64a133.37,133.37,0,0,0,.87,14.17s.86,6,3.47,8.69c3.33,3.48,7.71,3.37,9.67,3.74,7,.67,29.76.87,29.76.87s18.4,0,30.64-.91c1.71-.2,5.44-.22,8.77-3.7,2.63-2.65,3.49-8.69,3.49-8.69a133.18,133.18,0,0,0,.87-14.18V58.43a136.86,136.86,0,0,0-.89-14.18Z"
     id="path12"
     style="filter:url(#filter874)" />
  <polygon
     class="cls-1"
     points="52.97 73.11 52.97 48.51 76.61 60.86 52.97 73.11 52.97 73.11"
     id="polygon14" />
</svg>
