<?xml version="1.0" encoding="UTF-8" standalone="no"?>
<svg
   viewBox="0 0 16 16"
   width="16"
   height="16"
   version="1.1"
   id="svg18"
   sodipodi:docname="error.svg"
   inkscape:version="1.1.2 (0a00cf5339, 2022-02-04)"
   xmlns:inkscape="http://www.inkscape.org/namespaces/inkscape"
   xmlns:sodipodi="http://sodipodi.sourceforge.net/DTD/sodipodi-0.dtd"
   xmlns="http://www.w3.org/2000/svg"
   xmlns:svg="http://www.w3.org/2000/svg">
  <defs
     id="defs13">
    <filter
       style="color-interpolation-filters:sRGB;"
       inkscape:label="Drop Shadow"
       id="filter25"
       x="-0.024"
       y="-0.024"
       width="1.048"
       height="1.068">
      <feFlood
         flood-opacity="0.501961"
         flood-color="rgb(0,0,0)"
         result="flood"
         id="feFlood15" />
      <feComposite
         in="flood"
         in2="SourceGraphic"
         operator="in"
         result="composite1"
         id="feComposite17" />
      <feGaussianBlur
         in="composite1"
         stdDeviation="0.1"
         result="blur"
         id="feGaussianBlur19" />
      <feOffset
         dx="0"
         dy="0.2"
         result="offset"
         id="feOffset21" />
      <feComposite
         in="SourceGraphic"
         in2="offset"
         operator="over"
         result="composite2"
         id="feComposite23" />
    </filter>
  </defs>
  <sodipodi:namedview
     id="namedview20"
     pagecolor="#ffffff"
     bordercolor="#666666"
     borderopacity="1.0"
     inkscape:pageshadow="2"
     inkscape:pageopacity="0.0"
     inkscape:pagecheckerboard="0"
     showgrid="false"
     inkscape:zoom="40.0625"
     inkscape:cx="8"
     inkscape:cy="7.975039"
     inkscape:window-width="1600"
     inkscape:window-height="815"
     inkscape:window-x="0"
     inkscape:window-y="0"
     inkscape:window-maximized="1"
     inkscape:current-layer="svg18" />
  <linearGradient
     id="g0"
     x1="0%"
     y1="0%"
     x2="0%"
     y2="100%">
    <stop
       offset="0%"
       style="stop-color:#ff4040;stop-opacity:1"
       id="stop2" />
    <stop
       offset="100%"
       style="stop-color:#a00040;stop-opacity:1"
       id="stop4" />
  </linearGradient>
  <linearGradient
     id="g1"
     x1="0%"
     y1="0%"
     x2="0%"
     y2="100%">
    <stop
       offset="0%"
       style="stop-color:#e7e9ec;stop-opacity:1"
       id="stop7" />
    <stop
       offset="100%"
       style="stop-color:#ffb0b0;stop-opacity:1"
       id="stop9" />
  </linearGradient>
  <style
     id="style12">
    .ac-color {
      fill: url(#g0);
    }
    .ac-color1 {
      fill: url(#g1);
    }
  </style>
  <path
     d="M0 0 16 0 16 16 0 16 0 0"
     class="ac-color"
     id="path14" />
  <path
     d="M2 10 2 6Q2 4 4 4L12 4Q14 4 14 6L14 10Q14 12 12 12L4 12Q2 12 2 10M4 5.5 4 6 3.5 6Q3 6 3 6.5 3 7 3.5 7L4 7 4 7.5Q4 8 4.5 8 5 8 5 7.5L5 7 5.5 7Q6 7 6 6.5 6 6 5.5 6L5 6 5 5.5Q5 5 4.5 5 4 5 4 5.5M11.5 5A1 1 90 0011.5 5Q11 5 11 5.5 11 6 11.5 6 12 6 12 5.5 12 5 11.5 5M10.5 6Q10 6 10 6.5 10 7 10.5 7 11 7 11 6.5 11 6 10.5 6M11.5 7Q11 7 11 7.5 11 8 11.5 8 12 8 12 7.5 12 7 11.5 7M12.5 6Q12 6 12 6.5 12 7 12.5 7 13 7 13 6.5 13 6 12.5 6M5 9A1 1 90 005 11 1 1 90 005 9M11 9A1 1 90 0011 11 1 1 90 0011 9"
     class="ac-color1"
     id="path16"
     style="filter:url(#filter25)" />
</svg>
