<svg viewBox="0 0 340 40" width="340" height="40" xmlns="http://www.w3.org/2000/svg">
  <style>
    .ac-color {
      fill: #fff;
    }
    .ac-color1 {
      fill: #c00040
    }
    .ac-color2 {
      fill: #fff;
    }
    .ac-color3 {
      fill: #fff;
      opacity: 0.5;
    }
    .ac-color4 {
      fill: #fff;
      opacity: 0.25;
    }
  </style>
  <path d="M4 3 20 3Q23 3 23 6L23 10Q23 13 20 13L4 13Q1 13 1 10L1 6Q1 3 4 3M2 6 2 10Q2 12 4 12L20 12Q22 12 22 10L22 6Q22 4 20 4L4 4Q2 4 2 6M24 6Q25 6 25 7L25 9Q25 10 24 10L23.5 10 23.5 6 24 6M32 3 48 3Q51 3 51 6L51 10Q51 13 48 13L32 13Q29 13 29 10L29 6Q29 3 32 3M30 6 30 10Q30 12 32 12L48 12Q50 12 50 10L50 6Q50 4 48 4L32 4Q30 4 30 6M52 6Q53 6 53 7L53 9Q53 10 52 10L51.5 10 51.5 6 52 6M60 3 76 3Q79 3 79 6L79 10Q79 13 76 13L60 13Q57 13 57 10L57 6Q57 3 60 3M58 6 58 10Q58 12 60 12L76 12Q78 12 78 10L78 6Q78 4 76 4L60 4Q58 4 58 6M80 6Q81 6 81 7L81 9Q81 10 80 10L79.5 10 79.5 6 80 6M88 3 104 3Q107 3 107 6L107 10Q107 13 104 13L88 13Q85 13 85 10L85 6Q85 3 88 3M86 6 86 10Q86 12 88 12L104 12Q106 12 106 10L106 6Q106 4 104 4L88 4Q86 4 86 6M108 6Q109 6 109 7L109 9Q109 10 108 10L107.5 10 107.5 6 108 6M116 3 132 3Q135 3 135 6L135 10Q135 13 132 13L116 13Q113 13 113 10L113 6Q113 3 116 3M114 6 114 10Q114 12 116 12L132 12Q134 12 134 10L134 6Q134 4 132 4L116 4Q114 4 114 6M136 6Q137 6 137 7L137 9Q137 10 136 10L135.5 10 135.5 6 136 6M144 3 160 3Q163 3 163 6L163 10Q163 13 160 13L144 13Q141 13 141 10L141 6Q141 3 144 3M142 6 142 10Q142 12 144 12L160 12Q162 12 162 10L162 6Q162 4 160 4L144 4Q142 4 142 6M164 6Q165 6 165 7L165 9Q165 10 164 10L163.5 10 163.5 6 164 6M172 3 188 3Q191 3 191 6L191 10Q191 13 188 13L172 13Q169 13 169 10L169 6Q169 3 172 3M170 6 170 10Q170 12 172 12L188 12Q190 12 190 10L190 6Q190 4 188 4L172 4Q170 4 170 6M192 6Q193 6 193 7L193 9Q193 10 192 10L191.5 10 191.5 6 192 6M200 3 216 3Q219 3 219 6L219 10Q219 13 216 13L200 13Q197 13 197 10L197 6Q197 3 200 3M198 6 198 10Q198 12 200 12L216 12Q218 12 218 10L218 6Q218 4 216 4L200 4Q198 4 198 6M220 6Q221 6 221 7L221 9Q221 10 220 10L219.5 10 219.5 6 220 6M228 3 244 3Q247 3 247 6L247 10Q247 13 244 13L228 13Q225 13 225 10L225 6Q225 3 228 3M226 6 226 10Q226 12 228 12L244 12Q246 12 246 10L246 6Q246 4 244 4L228 4Q226 4 226 6M248 6Q249 6 249 7L249 9Q249 10 248 10L247.5 10 247.5 6 248 6M256 3 272 3Q275 3 275 6L275 10Q275 13 272 13L256 13Q253 13 253 10L253 6Q253 3 256 3M254 6 254 10Q254 12 256 12L272 12Q274 12 274 10L274 6Q274 4 272 4L256 4Q254 4 254 6M276 6Q277 6 277 7L277 9Q277 10 276 10L275.5 10 275.5 6 276 6M284 3 300 3Q303 3 303 6L303 10Q303 13 300 13L284 13Q281 13 281 10L281 6Q281 3 284 3M282 6 282 10Q282 12 284 12L300 12Q302 12 302 10L302 6Q302 4 300 4L284 4Q282 4 282 6M304 6Q305 6 305 7L305 9Q305 10 304 10L303.5 10 303.5 6 304 6M312 3 328 3Q331 3 331 6L331 10Q331 13 328 13L312 13Q309 13 309 10L309 6Q309 3 312 3M310 6 310 10Q310 12 312 12L328 12Q330 12 330 10L330 6Q330 4 328 4L312 4Q310 4 310 6M332 6Q333 6 333 7L333 9Q333 10 332 10L331.5 10 331.5 6 332 6M4 23 20 23Q23 23 23 26L23 30Q23 33 20 33L4 33Q1 33 1 30L1 26Q1 23 4 23M2 26 2 30Q2 32 4 32L20 32Q22 32 22 30L22 26Q22 24 20 24L4 24Q2 24 2 26M24 26Q25 26 25 27L25 29Q25 30 24 30L23.5 30 23.5 26 24 26M32 23 48 23Q51 23 51 26L51 30Q51 33 48 33L32 33Q29 33 29 30L29 26Q29 23 32 23M30 26 30 30Q30 32 32 32L48 32Q50 32 50 30L50 26Q50 24 48 24L32 24Q30 24 30 26M52 26Q53 26 53 27L53 29Q53 30 52 30L51.5 30 51.5 26 52 26M60 23 76 23Q79 23 79 26L79 30Q79 33 76 33L60 33Q57 33 57 30L57 26Q57 23 60 23M58 26 58 30Q58 32 60 32L76 32Q78 32 78 30L78 26Q78 24 76 24L60 24Q58 24 58 26M80 26Q81 26 81 27L81 29Q81 30 80 30L79.5 30 79.5 26 80 26M88 23 104 23Q107 23 107 26L107 30Q107 33 104 33L88 33Q85 33 85 30L85 26Q85 23 88 23M86 26 86 30Q86 32 88 32L104 32Q106 32 106 30L106 26Q106 24 104 24L88 24Q86 24 86 26M108 26Q109 26 109 27L109 29Q109 30 108 30L107.5 30 107.5 26 108 26M116 23 132 23Q135 23 135 26L135 30Q135 33 132 33L116 33Q113 33 113 30L113 26Q113 23 116 23M114 26 114 30Q114 32 116 32L132 32Q134 32 134 30L134 26Q134 24 132 24L116 24Q114 24 114 26M136 26Q137 26 137 27L137 29Q137 30 136 30L135.5 30 135.5 26 136 26M144 23 160 23Q163 23 163 26L163 30Q163 33 160 33L144 33Q141 33 141 30L141 26Q141 23 144 23M142 26 142 30Q142 32 144 32L160 32Q162 32 162 30L162 26Q162 24 160 24L144 24Q142 24 142 26M164 26Q165 26 165 27L165 29Q165 30 164 30L163.5 30 163.5 26 164 26M172 23 188 23Q191 23 191 26L191 30Q191 33 188 33L172 33Q169 33 169 30L169 26Q169 23 172 23M170 26 170 30Q170 32 172 32L188 32Q190 32 190 30L190 26Q190 24 188 24L172 24Q170 24 170 26M192 26Q193 26 193 27L193 29Q193 30 192 30L191.5 30 191.5 26 192 26M200 23 216 23Q219 23 219 26L219 30Q219 33 216 33L200 33Q197 33 197 30L197 26Q197 23 200 23M198 26 198 30Q198 32 200 32L216 32Q218 32 218 30L218 26Q218 24 216 24L200 24Q198 24 198 26M220 26Q221 26 221 27L221 29Q221 30 220 30L219.5 30 219.5 26 220 26M228 23 244 23Q247 23 247 26L247 30Q247 33 244 33L228 33Q225 33 225 30L225 26Q225 23 228 23M226 26 226 30Q226 32 228 32L244 32Q246 32 246 30L246 26Q246 24 244 24L228 24Q226 24 226 26M248 26Q249 26 249 27L249 29Q249 30 248 30L247.5 30 247.5 26 248 26M256 23 272 23Q275 23 275 26L275 30Q275 33 272 33L256 33Q253 33 253 30L253 26Q253 23 256 23M254 26 254 30Q254 32 256 32L272 32Q274 32 274 30L274 26Q274 24 272 24L256 24Q254 24 254 26M276 26Q277 26 277 27L277 29Q277 30 276 30L275.5 30 275.5 26 276 26M284 23 300 23Q303 23 303 26L303 30Q303 33 300 33L284 33Q281 33 281 30L281 26Q281 23 284 23M282 26 282 30Q282 32 284 32L300 32Q302 32 302 30L302 26Q302 24 300 24L284 24Q282 24 282 26M304 26Q305 26 305 27L305 29Q305 30 304 30L303.5 30 303.5 26 304 26" class="ac-color3"></path>
  <path d="M24 6Q25 6 25 7L25 9Q25 10 24 10L23.5 10 23.5 6 24 6M52 6Q53 6 53 7L53 9Q53 10 52 10L51.5 10 51.5 6 52 6M80 6Q81 6 81 7L81 9Q81 10 80 10L79.5 10 79.5 6 80 6M108 6Q109 6 109 7L109 9Q109 10 108 10L107.5 10 107.5 6 108 6M136 6Q137 6 137 7L137 9Q137 10 136 10L135.5 10 135.5 6 136 6M164 6Q165 6 165 7L165 9Q165 10 164 10L163.5 10 163.5 6 164 6M192 6Q193 6 193 7L193 9Q193 10 192 10L191.5 10 191.5 6 192 6M220 6Q221 6 221 7L221 9Q221 10 220 10L219.5 10 219.5 6 220 6M248 6Q249 6 249 7L249 9Q249 10 248 10L247.5 10 247.5 6 248 6M276 6Q277 6 277 7L277 9Q277 10 276 10L275.5 10 275.5 6 276 6M304 6Q305 6 305 7L305 9Q305 10 304 10L303.5 10 303.5 6 304 6M332 6Q333 6 333 7L333 9Q333 10 332 10L331.5 10 331.5 6 332 6M32 5Q33 5 33 6L33 10Q33 11 32 11 31 11 31 10L31 6Q31 5 32 5M60 5 61 5Q62 5 62 6L62 10Q62 11 61 11L60 11Q59 11 59 10L59 6Q59 5 60 5M88 5 91 5Q92 5 92 6L92 10Q92 11 91 11L88 11Q87 11 87 10L87 6Q87 5 88 5M116 5 121 5Q122 5 122 6L122 10Q122 11 121 11L116 11Q115 11 115 10L115 6Q115 5 116 5M144 5 151 5Q152 5 152 6L152 10Q152 11 151 11L144 11Q143 11 143 10L143 6Q143 5 144 5M172 5 181 5Q182 5 182 6L182 10Q182 11 181 11L172 11Q171 11 171 10L171 6Q171 5 172 5M200 5 211 5Q212 5 212 6L212 10Q212 11 211 11L200 11Q199 11 199 10L199 6Q199 5 200 5M228 5 241 5Q242 5 242 6L242 10Q242 11 241 11L228 11Q227 11 227 10L227 6Q227 5 228 5M256 5 271 5Q272 5 272 6L272 10Q272 11 271 11L256 11Q255 11 255 10L255 6Q255 5 256 5M284 5 300 5Q301 5 301 6L301 10Q301 11 300 11L284 11Q283 11 283 10L283 6Q283 5 284 5M318 7Q318 5 320 5 322 5 322 6.5C322 8 320.5 7.5 320.5 9L319.5 9C319.5 7 321 7.5 321 6.5Q321 6 320 6 319 6 319 7L318 7M319.5 10 320.5 10 320.5 11 319.5 11 319.5 10" class="ac-color"></path>
  <path d="M24 26Q25 26 25 27L25 29Q25 30 24 30L23.5 30 23.5 26 24 26M52 26Q53 26 53 27L53 29Q53 30 52 30L51.5 30 51.5 26 52 26M80 26Q81 26 81 27L81 29Q81 30 80 30L79.5 30 79.5 26 80 26M108 26Q109 26 109 27L109 29Q109 30 108 30L107.5 30 107.5 26 108 26M136 26Q137 26 137 27L137 29Q137 30 136 30L135.5 30 135.5 26 136 26M164 26Q165 26 165 27L165 29Q165 30 164 30L163.5 30 163.5 26 164 26M192 26Q193 26 193 27L193 29Q193 30 192 30L191.5 30 191.5 26 192 26M220 26Q221 26 221 27L221 29Q221 30 220 30L219.5 30 219.5 26 220 26M248 26Q249 26 249 27L249 29Q249 30 248 30L247.5 30 247.5 26 248 26M276 26Q277 26 277 27L277 29Q277 30 276 30L275.5 30 275.5 26 276 26M304 26Q305 26 305 27L305 29Q305 30 304 30L303.5 30 303.5 26 304 26M32 25Q33 25 33 26L33 30Q33 31 32 31 31 31 31 30L31 26Q31 25 32 25M60 25 61 25Q62 25 62 26L62 30Q62 31 61 31L60 31Q59 31 59 30L59 26Q59 25 60 25M88 25 91 25Q92 25 92 26L92 30Q92 31 91 31L88 31Q87 31 87 30L87 26Q87 25 88 25M116 25 121 25Q122 25 122 26L122 30Q122 31 121 31L116 31Q115 31 115 30L115 26Q115 25 116 25M144 25 151 25Q152 25 152 26L152 30Q152 31 151 31L144 31Q143 31 143 30L143 26Q143 25 144 25M172 25 181 25Q182 25 182 26L182 30Q182 31 181 31L172 31Q171 31 171 30L171 26Q171 25 172 25M200 25 211 25Q212 25 212 26L212 30Q212 31 211 31L200 31Q199 31 199 30L199 26Q199 25 200 25M228 25 241 25Q242 25 242 26L242 30Q242 31 241 31L228 31Q227 31 227 30L227 26Q227 25 228 25M256 25 271 25Q272 25 272 26L272 30Q272 31 271 31L256 31Q255 31 255 30L255 26Q255 25 256 25M284 25 300 25Q301 25 301 26L301 30Q301 31 300 31L284 31Q283 31 283 30L283 26Q283 25 284 25" class="ac-color4"></path>
  <path d="M32 5Q33 5 33 6L33 10Q33 11 32 11 31 11 31 10L31 6Q31 5 32 5M32 25Q33 25 33 26L33 30Q33 31 32 31 31 31 31 30L31 26Q31 25 32 25" class="ac-color1"></path>
  <path d="M11 22 13 22Q14 22 13.75 23L13 27 14 27Q15 27 14.5 28L12 33Q11 35 11 33L11 29 10 29Q8.75 29 9 28L9.9 23Q10 22 11 22M39 22 41 22Q42 22 41.75 23L41 27 42 27Q43 27 42.5 28L40 33Q39 35 39 33L39 29 38 29Q36.75 29 37 28L37.9 23Q38 22 39 22M67 22 69 22Q70 22 69.75 23L69 27 70 27Q71 27 70.5 28L68 33Q67 35 67 33L67 29 66 29Q64.75 29 65 28L65.9 23Q66 22 67 22M95 22 97 22Q98 22 97.75 23L97 27 98 27Q99 27 98.5 28L96 33Q95 35 95 33L95 29 94 29Q92.75 29 93 28L93.9 23Q94 22 95 22M123 22 125 22Q126 22 125.75 23L125 27 126 27Q127 27 126.5 28L124 33Q123 35 123 33L123 29 122 29Q120.75 29 121 28L121.9 23Q122 22 123 22M151 22 153 22Q154 22 153.75 23L153 27 154 27Q155 27 154.5 28L152 33Q151 35 151 33L151 29 150 29Q148.75 29 149 28L149.9 23Q150 22 151 22M179 22 181 22Q182 22 181.75 23L181 27 182 27Q183 27 182.5 28L180 33Q179 35 179 33L179 29 178 29Q176.75 29 177 28L177.9 23Q178 22 179 22M207 22 209 22Q210 22 209.75 23L209 27 210 27Q211 27 210.5 28L208 33Q207 35 207 33L207 29 206 29Q204.75 29 205 28L205.9 23Q206 22 207 22M235 22 237 22Q238 22 237.75 23L237 27 238 27Q239 27 238.5 28L236 33Q235 35 235 33L235 29 234 29Q232.75 29 233 28L233.9 23Q234 22 235 22M263 22 265 22Q266 22 265.75 23L265 27 266 27Q267 27 266.5 28L264 33Q263 35 263 33L263 29 262 29Q260.75 29 261 28L261.9 23Q262 22 263 22M291 22 293 22Q294 22 293.75 23L293 27 294 27Q295 27 294.5 28L292 33Q291 35 291 33L291 29 290 29Q288.75 29 289 28L289.9 23Q290 22 291 22" class="ac-color2"></path>
</svg>
