<svg viewBox="0 0 16 16" width="16" height="16" xmlns="http://www.w3.org/2000/svg">
  <style>
    .ac-color,
    .ac-color1,
    .ac-color2 {
      fill: #fff;
    }
    .ac-color,
    .ac-color1 {
      animation: fade 1s ease infinite;
    }
    .ac-color1 {
      animation: fade 1s ease infinite 0.5s;
    }
    @keyframes fade {
      0% {
        opacity: 1;
      }
      25% {
        opacity: 0.5;
      }
      75% {
        opacity: 0.5;
      }
      100% {
        opacity: 1;
      }
    }
  </style>
  <path d="M8 2 14 2 14 8 13 8 13 3 8 3 8 2" class="ac-color"></path>
  <path d="M2 8 3 8 3 13 8 13 8 14 2 14 2 8" class="ac-color1"></path>
  <path d="M7 5 9 5Q11 5 11 7L11 9Q11 11 9 11L7 11Q5 11 5 9L5 7Q5 5 7 5M6 7 6 9Q6 10 7 10L9 10Q10 10 10 9L10 7Q10 6 9 6L7 6Q6 6 6 7" class="ac-color2"></path>
</svg>
