<?xml version="1.0" encoding="UTF-8" standalone="no"?>
<svg
   viewBox="0 0 16 16"
   width="16"
   height="16"
   version="1.1"
   id="svg20"
   sodipodi:docname="calculator.svg"
   inkscape:version="1.1.2 (0a00cf5339, 2022-02-04)"
   xmlns:inkscape="http://www.inkscape.org/namespaces/inkscape"
   xmlns:sodipodi="http://sodipodi.sourceforge.net/DTD/sodipodi-0.dtd"
   xmlns="http://www.w3.org/2000/svg"
   xmlns:svg="http://www.w3.org/2000/svg"
   xmlns:rdf="http://www.w3.org/1999/02/22-rdf-syntax-ns#"
   xmlns:cc="http://creativecommons.org/ns#"
   xmlns:dc="http://purl.org/dc/elements/1.1/">
  <defs
     id="defs16">
    <filter
       style="color-interpolation-filters:sRGB;"
       inkscape:label="Drop Shadow"
       id="filter28"
       x="-0.02"
       y="-0.02"
       width="1.04"
       height="1.0566667">
      <feFlood
         flood-opacity="0.501961"
         flood-color="rgb(0,0,0)"
         result="flood"
         id="feFlood18" />
      <feComposite
         in="flood"
         in2="SourceGraphic"
         operator="out"
         result="composite1"
         id="feComposite20" />
      <feGaussianBlur
         in="composite1"
         stdDeviation="0.1"
         result="blur"
         id="feGaussianBlur22" />
      <feOffset
         dx="0"
         dy="0.2"
         result="offset"
         id="feOffset24" />
      <feComposite
         in="offset"
         in2="SourceGraphic"
         operator="atop"
         result="composite2"
         id="feComposite26" />
    </filter>
    <filter
       style="color-interpolation-filters:sRGB;"
       inkscape:label="Drop Shadow"
       id="filter58"
       x="-0.048000001"
       y="-0.080000001"
       width="1.096"
       height="1.2266667">
      <feFlood
         flood-opacity="0.501961"
         flood-color="rgb(0,0,0)"
         result="flood"
         id="feFlood48" />
      <feComposite
         in="flood"
         in2="SourceGraphic"
         operator="out"
         result="composite1"
         id="feComposite50" />
      <feGaussianBlur
         in="composite1"
         stdDeviation="0.1"
         result="blur"
         id="feGaussianBlur52" />
      <feOffset
         dx="0"
         dy="0.2"
         result="offset"
         id="feOffset54" />
      <feComposite
         in="offset"
         in2="SourceGraphic"
         operator="atop"
         result="composite2"
         id="feComposite56" />
    </filter>
    <filter
       style="color-interpolation-filters:sRGB;"
       inkscape:label="Drop Shadow"
       id="filter88"
       x="-0.034285715"
       y="-0.034285715"
       width="1.0685714"
       height="1.0971429">
      <feFlood
         flood-opacity="0.501961"
         flood-color="rgb(0,0,0)"
         result="flood"
         id="feFlood78" />
      <feComposite
         in="flood"
         in2="SourceGraphic"
         operator="in"
         result="composite1"
         id="feComposite80" />
      <feGaussianBlur
         in="composite1"
         stdDeviation="0.1"
         result="blur"
         id="feGaussianBlur82" />
      <feOffset
         dx="0"
         dy="0.2"
         result="offset"
         id="feOffset84" />
      <feComposite
         in="SourceGraphic"
         in2="offset"
         operator="over"
         result="composite2"
         id="feComposite86" />
    </filter>
  </defs>
  <metadata
     id="metadata26">
    <rdf:RDF>
      <cc:Work
         rdf:about="">
        <dc:format>image/svg+xml</dc:format>
        <dc:type
           rdf:resource="http://purl.org/dc/dcmitype/StillImage" />
      </cc:Work>
    </rdf:RDF>
  </metadata>
  <sodipodi:namedview
     pagecolor="#ffffff"
     bordercolor="#666666"
     borderopacity="1"
     objecttolerance="10"
     gridtolerance="10"
     guidetolerance="10"
     inkscape:pageopacity="0"
     inkscape:pageshadow="2"
     inkscape:window-width="913"
     inkscape:window-height="480"
     id="namedview22"
     showgrid="false"
     inkscape:zoom="14.75"
     inkscape:cx="9.1525424"
     inkscape:cy="8"
     inkscape:window-x="26"
     inkscape:window-y="23"
     inkscape:window-maximized="0"
     inkscape:current-layer="svg20"
     inkscape:pagecheckerboard="0" />
  <linearGradient
     id="g0"
     x1="0%"
     y1="0%"
     x2="0%"
     y2="100%">
    <stop
       offset="0%"
       style="stop-color:#ffffff;stop-opacity:1"
       id="stop2" />
    <stop
       offset="100%"
       style="stop-color:#b0ddff;stop-opacity:1"
       id="stop4" />
  </linearGradient>
  <linearGradient
     id="g1"
     x1="0%"
     y1="0%"
     x2="100%"
     y2="100%">
    <stop
       offset="0%"
       style="stop-color:#60e080;stop-opacity:1"
       id="stop7" />
    <stop
       offset="100%"
       style="stop-color:#40a060;stop-opacity:1"
       id="stop9" />
  </linearGradient>
  <style
     id="style12">
    .ac-color {
      fill: url(#g0);
    }
    .ac-color1 {
      fill: url(#g1);
    }
    .ac-color2 {
      fill: #414141;
    }
    .ac-color3 {
      fill: #205030;
    }
  </style>
  <path
     d="M4 0 12 0Q16 0 16 4L16 12Q16 16 12 16L4 16Q0 16 0 12L0 4Q0 0 4 0"
     class="ac-color"
     id="path14" />
  <path
     d="M8 14 8 10Q8 8 10 8L13 8Q15 8 15 10L15 13Q15 15 13 15L10 15Q8 15 8 13"
     class="ac-color1"
     id="path16"
     style="filter:url(#filter88)" />
  <path
     d="M 4 4 L 4 2 L 5 2 L 5 4 L 7 4 L 7 5 L 5 5 L 5 7 L 4 7 L 4 5 L 2 5 L 2 4 L 4 4 M 9 4 L 14 4 L 14 5 L 9 5 L 9 4 M 2 13.25 L 2.75 14 L 2.75 14 L 4.5 12.25 L 6.25 14 L 7 13.25 L 5.25 11.5 L 7 9.75 L 6.25 9 L 4.5 10.75 L 2.75 9 L 2 9.75 L 3.75 11.5 L 2 13.25"
     class="ac-color2"
     id="path18"
     style="filter:url(#filter28)" />
  <path
     d="M 9 10 L 14 10 L 14 11 L 9 11 L 9 10 M 9 12 L 14 12 L 14 13 L 9 13 L 9 12"
     class="ac-color3"
     id="path45"
     style="filter:url(#filter58)" />
</svg>
