<svg viewBox="0 0 16 16" width="30" height="30" xmlns="http://www.w3.org/2000/svg" fill="#40a060" fill-opacity="1">
  <path d="M3 0 13 0Q16 0 16 3L16 9Q16 12 13 12L9 12Q8.4 12 7.5 13L5.5 15Q4.5 16 4 16 3 16 3 15L3 12Q0 12 0 9L0 3Q0 0 3 0M3 1Q1 1 1 3L1 9Q1 11 3 11 4 11 4 12L4 15 7 12Q8 11 9 11L13 11Q15 11 15 9L15 3Q15 1 13 1L3 1M4.5 3.5 11.5 3.5Q12 3.5 12 4 12 4.5 11.5 4.5L4.5 4.5Q4 4.5 4 4 4 3.5 4.5 3.5M4.5 5.5 11.5 5.5Q12 5.5 12 6 12 6.5 11.5 6.5L4.5 6.5Q4 6.5 4 6 4 5.5 4.5 5.5M4.5 7.5 9.5 7.5Q10 7.5 10 8 10 8.5 9.5 8.5L4.5 8.5Q4 8.5 4 8 4 7.5 4.5 7.5"></path>
</svg>
