<?xml version="1.0" encoding="UTF-8" standalone="no"?>
<svg
   xmlns:dc="http://purl.org/dc/elements/1.1/"
   xmlns:cc="http://creativecommons.org/ns#"
   xmlns:rdf="http://www.w3.org/1999/02/22-rdf-syntax-ns#"
   xmlns:svg="http://www.w3.org/2000/svg"
   xmlns="http://www.w3.org/2000/svg"
   xmlns:sodipodi="http://sodipodi.sourceforge.net/DTD/sodipodi-0.dtd"
   xmlns:inkscape="http://www.inkscape.org/namespaces/inkscape"
   viewBox="0 0 16 16"
   width="16"
   height="16"
   version="1.1"
   id="svg18"
   sodipodi:docname="file.svg"
   inkscape:version="0.92.5 (2060ec1f9f, 2020-04-08)">
  <metadata
     id="metadata24">
    <rdf:RDF>
      <cc:Work
         rdf:about="">
        <dc:format>image/svg+xml</dc:format>
        <dc:type
           rdf:resource="http://purl.org/dc/dcmitype/StillImage" />
      </cc:Work>
    </rdf:RDF>
  </metadata>
  <defs
     id="defs22">
    <filter
       style="color-interpolation-filters:sRGB;"
       inkscape:label="Drop Shadow"
       id="filter844">
      <feFlood
         flood-opacity="0.25098"
         flood-color="rgb(0,0,0)"
         result="flood"
         id="feFlood834" />
      <feComposite
         in="flood"
         in2="SourceGraphic"
         operator="in"
         result="composite1"
         id="feComposite836" />
      <feGaussianBlur
         in="composite1"
         stdDeviation="0.5"
         result="blur"
         id="feGaussianBlur838" />
      <feOffset
         dx="0"
         dy="0.5"
         result="offset"
         id="feOffset840" />
      <feComposite
         in="SourceGraphic"
         in2="offset"
         operator="over"
         result="composite2"
         id="feComposite842" />
    </filter>
    <filter
       style="color-interpolation-filters:sRGB;"
       inkscape:label="Drop Shadow"
       id="filter836">
      <feFlood
         flood-opacity="0.25098"
         flood-color="rgb(255,255,255)"
         result="flood"
         id="feFlood826" />
      <feComposite
         in="flood"
         in2="SourceGraphic"
         operator="out"
         result="composite1"
         id="feComposite828" />
      <feGaussianBlur
         in="composite1"
         stdDeviation="0.5"
         result="blur"
         id="feGaussianBlur830" />
      <feOffset
         dx="0"
         dy="0.5"
         result="offset"
         id="feOffset832" />
      <feComposite
         in="offset"
         in2="SourceGraphic"
         operator="atop"
         result="composite2"
         id="feComposite834" />
    </filter>
  </defs>
  <sodipodi:namedview
     pagecolor="#ffffff"
     bordercolor="#666666"
     borderopacity="1"
     objecttolerance="10"
     gridtolerance="10"
     guidetolerance="10"
     inkscape:pageopacity="0"
     inkscape:pageshadow="2"
     inkscape:window-width="826"
     inkscape:window-height="480"
     id="namedview20"
     showgrid="false"
     inkscape:zoom="14.75"
     inkscape:cx="2.8474576"
     inkscape:cy="8"
     inkscape:window-x="0"
     inkscape:window-y="0"
     inkscape:window-maximized="0"
     inkscape:current-layer="svg18" />
  <linearGradient
     id="g0"
     x1="0%"
     y1="0%"
     x2="0%"
     y2="100%">
    <stop
       offset="0%"
       style="stop-color:#40a060;stop-opacity:1"
       id="stop2" />
    <stop
       offset="100%"
       style="stop-color:#60e080;stop-opacity:1"
       id="stop4" />
  </linearGradient>
  <linearGradient
     id="g1"
     x1="0%"
     y1="100%"
     x2="100%"
     y2="0%">
    <stop
       offset="0%"
       style="stop-color:#e7e9ec;stop-opacity:1"
       id="stop7" />
    <stop
       offset="100%"
       style="stop-color:#b0ddff;stop-opacity:1"
       id="stop9" />
  </linearGradient>
  <style
     id="style12">
    .ac-color {
      fill: url(#g0);
    }
    .ac-color1 {
      fill: url(#g1);
    }
    .ac-color2 {
      fill: #fff;
      opacity: 0.75;
    }
  </style>
  <path
     d="M3 0 10 0Q14 0 14 4L14 4 14 15Q14 16 13 16L3 16Q2 16 2 15L2 1Q2 0 3 0"
     class="ac-color"
     id="path14" />
  <path
     d="M10 0 10 3Q10 4 11 4L14 4Q14 0 10 0"
     class="ac-color1"
     id="path16"
     style="filter:url(#filter844)" />
  <path
     d="M5 6 11 6Q12 6 12 7L8.5 7 8.5 8.5 12 8.5 12 9.5 8.5 9.5 8.5 12 7.5 12 7.5 9.5 5 9.5 5 12 5 12Q4 12 4 11L4 7Q4 6 5 6M5 7 5 8.5 7.5 8.5 7.5 7 5 7M11 7 12 7 12 11Q12 12 11 12L5 12 5 11 11 11 11 7"
     class="ac-color2"
     id="path17" />
</svg>
