<?xml version="1.0" encoding="UTF-8" standalone="no"?>
<svg viewBox="0 0 16 16" width="16" height="16" version="1.1" id="svg18" sodipodi:docname="Bluetooth.svg"
  inkscape:version="1.1.2 (0a00cf5339, 2022-02-04)" xmlns:inkscape="http://www.inkscape.org/namespaces/inkscape"
  xmlns:sodipodi="http://sodipodi.sourceforge.net/DTD/sodipodi-0.dtd" xmlns="http://www.w3.org/2000/svg"
  xmlns:svg="http://www.w3.org/2000/svg" xmlns:rdf="http://www.w3.org/1999/02/22-rdf-syntax-ns#"
  xmlns:cc="http://creativecommons.org/ns#" xmlns:dc="http://purl.org/dc/elements/1.1/">
  <metadata id="metadata24">
    <rdf:RDF>
      <cc:Work rdf:about="">
        <dc:format>image/svg+xml</dc:format>
        <dc:type rdf:resource="http://purl.org/dc/dcmitype/StillImage" />
      </cc:Work>
    </rdf:RDF>
  </metadata>
  <sodipodi:namedview pagecolor="#ffffff" bordercolor="#666666" borderopacity="1" objecttolerance="10"
    gridtolerance="10" guidetolerance="10" inkscape:pageopacity="0" inkscape:pageshadow="2" inkscape:window-width="913"
    inkscape:window-height="480" id="namedview20" showgrid="false" inkscape:zoom="6.6802146" inkscape:cx="11.227184"
    inkscape:cy="5.8381358" inkscape:window-x="26" inkscape:window-y="23" inkscape:window-maximized="0"
    inkscape:current-layer="svg18" inkscape:pagecheckerboard="0" />
  <linearGradient id="g0" x1="0%" y1="0%" x2="0%" y2="100%">
    <stop offset="0%" style="stop-color:#c0c0c0;stop-opacity:1" id="stop7" />
    <stop offset="100%" style="stop-color:#6a6a6a;stop-opacity:1" id="stop9" />
  </linearGradient>
  <linearGradient id="g1" x1="0%" y1="0%" x2="50%" y2="100%">
    <stop offset="0%" style="stop-color:#212121;stop-opacity:1" id="stop2" />
    <stop offset="50%" style="stop-color:#404040;stop-opacity:1" id="stop2" />
    <stop offset="60%" style="stop-color:#000000;stop-opacity:1" id="stop2" />
    <stop offset="100%" style="stop-color:#101010;stop-opacity:1" id="stop5" />
  </linearGradient>
  <linearGradient id="g2" x1="50%" y1="0%" x2="0%" y2="100%">
    <stop offset="0%" style="stop-color:#00a0e8;stop-opacity:1" id="stop2" />
    <stop offset="100%" style="stop-color:#a040c0;stop-opacity:1" id="stop5" />
  </linearGradient>
  <style id="style12">
    .ac-color {
      fill: #a6a6a6;
    }

    .ac-color1 {
      fill: #212121;
    }

    .ac-color2 {
      fill: #00a0e8;
    }
  </style>
  <path d="M0 13 16 13Q16 14 15 14L1 14Q0 14 0 13" class="ac-color" id="path16" />
  <path d="M1 13 1 4Q1 3 2 3L14 3Q15 3 15 4L15 13 1 13M2 13 14 13 14 4 10 4Q10 5 9 5L7 5Q6 5 6 4L2 4 2 13" class="ac-color1" id="path16" />
  <path d="M2 13 14 13 14 4 10 4Q10 5 9 5L7 5Q6 5 6 4L2 4 2 13" class="ac-color2" id="path18" />
</svg>