<?xml version="1.0" encoding="UTF-8" standalone="no"?>
<svg viewBox="0 0 16 16" width="16" height="16" version="1.1" id="svg20" sodipodi:docname="calculator.svg"
  inkscape:version="1.1.2 (0a00cf5339, 2022-02-04)" xmlns:inkscape="http://www.inkscape.org/namespaces/inkscape"
  xmlns:sodipodi="http://sodipodi.sourceforge.net/DTD/sodipodi-0.dtd" xmlns="http://www.w3.org/2000/svg"
  xmlns:svg="http://www.w3.org/2000/svg" xmlns:rdf="http://www.w3.org/1999/02/22-rdf-syntax-ns#"
  xmlns:cc="http://creativecommons.org/ns#" xmlns:dc="http://purl.org/dc/elements/1.1/">
  <metadata id="metadata26">
    <rdf:RDF>
      <cc:Work rdf:about="">
        <dc:format>image/svg+xml</dc:format>
        <dc:type rdf:resource="http://purl.org/dc/dcmitype/StillImage" />
      </cc:Work>
    </rdf:RDF>
  </metadata>
  <sodipodi:namedview pagecolor="#ffffff" bordercolor="#666666" borderopacity="1" objecttolerance="10"
    gridtolerance="10" guidetolerance="10" inkscape:pageopacity="0" inkscape:pageshadow="2" inkscape:window-width="913"
    inkscape:window-height="480" id="namedview22" showgrid="false" inkscape:zoom="14.75" inkscape:cx="9.0847458"
    inkscape:cy="8" inkscape:window-x="26" inkscape:window-y="23" inkscape:window-maximized="0"
    inkscape:current-layer="svg20" inkscape:pagecheckerboard="0" />
  <linearGradient id="g0" x1="0%" y1="0%" x2="100%" y2="100%">
    <stop offset="0%" style="stop-color:#e7e9ec;stop-opacity:1" id="stop2" />
    <stop offset="100%" style="stop-color:#b0d0ff;stop-opacity:1" id="stop4" />
  </linearGradient>
  <linearGradient id="g1" x1="0%" y1="0%" x2="100%" y2="100%">
    <stop offset="0%" style="stop-color:#40e060;stop-opacity:1" id="stop7" />
    <stop offset="100%" style="stop-color:#40a060;stop-opacity:1" id="stop9" />
  </linearGradient>
  <style id="style12">
    .ac-color {
      fill: url(#g0);
    }

    .ac-color1 {
      fill: url(#g1);
    }

    .ac-color2 {
      fill: #333;
    }

    .ac-color3 {
      fill: #000;
      opacity: 0.6;
    }
  </style>
  <path d="M2 0 14 0Q16 0 16 2L16 14Q16 16 14 16L2 16Q0 16 0 14L0 2Q0 0 2 0" class="ac-color" id="path14" />
  <path d="M8 14 8 9Q8 8 9 8L14 8Q15 8 15 9L15 14Q15 15 14 15L9 15Q8 15 8 14" class="ac-color1" id="path16" />
  <path
    d="M 4 4 L 4 2 L 5 2 L 5 4 L 7 4 L 7 5 L 5 5 L 5 7 L 4 7 L 4 5 L 2 5 L 2 4 L 4 4 M 9 4 L 14 4 L 14 5 L 9 5 L 9 4 M 2 13.25 L 2.75 14 L 2.75 14 L 4.5 12.25 L 6.25 14 L 7 13.25 L 5.25 11.5 L 7 9.75 L 6.25 9 L 4.5 10.75 L 2.75 9 L 2 9.75 L 3.75 11.5 L 2 13.25"
    class="ac-color2" id="path18" />
  <path d="M 9 10 L 14 10 L 14 11 L 9 11 L 9 10 M 9 12 L 14 12 L 14 13 L 9 13 L 9 12" class="ac-color3" id="path45" />
</svg>