<?xml version="1.0" encoding="UTF-8" standalone="no"?>
<svg viewBox="0 0 16 16" width="16" height="16" version="1.1" id="svg32" sodipodi:docname="calendar.svg"
  inkscape:version="1.1.2 (0a00cf5339, 2022-02-04)" xmlns:inkscape="http://www.inkscape.org/namespaces/inkscape"
  xmlns:sodipodi="http://sodipodi.sourceforge.net/DTD/sodipodi-0.dtd" xmlns="http://www.w3.org/2000/svg"
  xmlns:svg="http://www.w3.org/2000/svg" xmlns:rdf="http://www.w3.org/1999/02/22-rdf-syntax-ns#"
  xmlns:cc="http://creativecommons.org/ns#" xmlns:dc="http://purl.org/dc/elements/1.1/">
  <metadata id="metadata38">
    <rdf:RDF>
      <cc:Work rdf:about="">
        <dc:format>image/svg+xml</dc:format>
        <dc:type rdf:resource="http://purl.org/dc/dcmitype/StillImage" />
      </cc:Work>
    </rdf:RDF>
  </metadata>
  <sodipodi:namedview pagecolor="#ffffff" bordercolor="#666666" borderopacity="1" objecttolerance="10"
    gridtolerance="10" guidetolerance="10" inkscape:pageopacity="0" inkscape:pageshadow="2" inkscape:window-width="913"
    inkscape:window-height="480" id="namedview34" showgrid="false" inkscape:zoom="14.75" inkscape:cx="8"
    inkscape:cy="9.1525424" inkscape:window-x="26" inkscape:window-y="23" inkscape:window-maximized="0"
    inkscape:current-layer="svg32" inkscape:pagecheckerboard="0" />
  <linearGradient id="g0" x1="0%" y1="0%" x2="0%" y2="100%">
    <stop offset="0%" style="stop-color:#0061e0;stop-opacity:1" id="stop32" />
    <stop offset="100%" style="stop-color:#00a0e8;stop-opacity:1" id="stop4" />
  </linearGradient>
  <linearGradient id="g1" x1="0%" y1="0%" x2="0%" y2="100%">
    <stop offset="0%" style="stop-color:#c02040;stop-opacity:1" id="stop2" />
    <stop offset="100%" style="stop-color:#8030a0;stop-opacity:1" id="stop9" />
  </linearGradient>
  <linearGradient id="g2" x1="0%" y1="0%" x2="0%" y2="100%">
    <stop offset="0%" style="stop-color:#ff6040;stop-opacity:1" id="stop53" />
    <stop offset="100%" style="stop-color:#c02040;stop-opacity:1" id="stop55" />
  </linearGradient>
  <linearGradient id="g3" x1="0%" y1="0%" x2="0%" y2="100%">
    <stop offset="0%" style="stop-color:#80c0ff;stop-opacity:1" id="stop12" />
    <stop offset="30%" style="stop-color:#ffffff;stop-opacity:1" id="stop13" />
    <stop offset="100%" style="stop-color:#80c0ff;stop-opacity:1" id="stop14" />
  </linearGradient>
  <style id="style22">
    .ac-color {
      fill: url(#g0);
    }

    .ac-color1 {
      fill: url(#g1);
    }

    .ac-color2 {
      fill: url(#g2);
    }

    .ac-color3 {
      fill: url(#g3);
    }

    .ac-color4 {
      fill: #fff;
      opacity: 0.75;
    }
  </style>
  <path d="M2 1 14 1Q15 1 15 2L15 15Q15 16 14 16L2 16Q1 16 1 15L1 2Q1 1 2 1" class="ac-color" id="path24" />
  <path d="M1 1 15 1Q16 1 16 2L16 4Q16 5 15 5L1 5Q0 5 0 4L0 2Q0 1 1 1" class="ac-color1" id="path26" />
  <path d="M2 1 14 1Q15 1 15 2L15 5 1 5 1 2Q1 1 2 1" class="ac-color2" id="path64" />
  <path d="M3 0 4 0 4 3 3 3 3 0M12 0 13 0 13 3 12 3 12 0" class="ac-color3" id="path28" />
  <path
    d="M6.5 6.5A1 1 0 006.5 8.5 1 1 0 006.5 6.5M9.5 6.5A1 1 0 009.5 8.5 1 1 0 009.5 6.5M12.5 6.5A1 1 0 0012.5 8.5 1 1 0 0012.5 6.5M3.5 9.5A1 1 0 003.5 11.5 1 1 0 003.5 9.5M6.5 9.5A1 1 0 006.5 11.5 1 1 0 006.5 9.5M9.5 9.5A1 1 0 009.5 11.5 1 1 0 009.5 9.5M12.5 9.5A1 1 0 0012.5 11.5 1 1 0 0012.5 9.5M3.5 12.5A1 1 0 003.5 14.5 1 1 0 003.5 12.5M6.5 12.5A1 1 0 006.5 14.5 1 1 0 006.5 12.5M9.5 12.5A1 1 0 009.5 14.5 1 1 0 009.5 12.5"
    class="ac-color4" id="path30" />
</svg>