<?xml version="1.0" encoding="UTF-8" standalone="no"?>
<svg viewBox="0 0 16 16" width="16" height="16" version="1.1" id="svg34" sodipodi:docname="camera.svg"
  inkscape:version="1.1.2 (0a00cf5339, 2022-02-04)" xmlns:inkscape="http://www.inkscape.org/namespaces/inkscape"
  xmlns:sodipodi="http://sodipodi.sourceforge.net/DTD/sodipodi-0.dtd" xmlns="http://www.w3.org/2000/svg"
  xmlns:svg="http://www.w3.org/2000/svg" xmlns:rdf="http://www.w3.org/1999/02/22-rdf-syntax-ns#"
  xmlns:cc="http://creativecommons.org/ns#" xmlns:dc="http://purl.org/dc/elements/1.1/">
  <metadata id="metadata40">
    <rdf:RDF>
      <cc:Work rdf:about="">
        <dc:format>image/svg+xml</dc:format>
        <dc:type rdf:resource="http://purl.org/dc/dcmitype/StillImage" />
      </cc:Work>
    </rdf:RDF>
  </metadata>
  <sodipodi:namedview pagecolor="#ffffff" bordercolor="#666666" borderopacity="1" objecttolerance="10"
    gridtolerance="10" guidetolerance="10" inkscape:pageopacity="0" inkscape:pageshadow="2" inkscape:window-width="913"
    inkscape:window-height="480" id="namedview36" showgrid="false" inkscape:zoom="14.75" inkscape:cx="5.559322"
    inkscape:cy="8" inkscape:window-x="26" inkscape:window-y="23" inkscape:window-maximized="0"
    inkscape:current-layer="svg34" inkscape:pagecheckerboard="0" />
  <linearGradient id="g0" x1="0%" y1="0%" x2="100%" y2="100%">
    <stop offset="0%" style="stop-color:#687888;stop-opacity:1" id="stop2" />
    <stop offset="100%" style="stop-color:#384858;stop-opacity:1" id="stop4" />
  </linearGradient>
  <linearGradient id="g1" x1="0%" y1="0%" x2="100%" y2="100%">
    <stop offset="0%" style="stop-color:#788888;stop-opacity:1" id="stop26" />
    <stop offset="100%" style="stop-color:#485868;stop-opacity:1" id="stop28" />
  </linearGradient>
  <linearGradient id="g2" x1="0%" y1="0%" x2="100%" y2="100%">
    <stop offset="0%" style="stop-color:#70848e;stop-opacity:1" id="stop7" />
    <stop offset="33%" style="stop-color:#fff;stop-opacity:1" id="stop8" />
    <stop offset="67%" style="stop-color:#70848e;stop-opacity:1" id="stop9" />
    <stop offset="100%" style="stop-color:#dfe8ec;stop-opacity:1" id="stop10" />
  </linearGradient>
  <linearGradient id="g3" x1="0%" y1="0%" x2="100%" y2="100%">
    <stop offset="0%" style="stop-color:#1a237e;stop-opacity:1" id="stop12" />
    <stop offset="100%" style="stop-color:#8e24aa;stop-opacity:1" id="stop14" />
  </linearGradient>
  <linearGradient id="g4" x1="0%" y1="0%" x2="100%" y2="100%">
    <stop offset="0%" style="stop-color:#00c0ff;stop-opacity:1" id="stop17" />
    <stop offset="100%" style="stop-color:#0080ff;stop-opacity:1" id="stop19" />
  </linearGradient>
  <style id="style22">
    .ac-color {
      fill: url(#g0);
    }

    .ac-color1 {
      fill: url(#g1);
    }

    .ac-color2 {
      fill: url(#g2);
    }

    .ac-color3 {
      fill: url(#g3);
    }

    .ac-color4 {
      fill: url(#g4);
    }

    .ac-color5 {
      fill: #ffc000;
    }
  </style>
  <path d="M1 3 5 3Q5 2 6 2L10 2Q11 2 11 3L15 3Q16 3 16 4L16 12Q16 13 15 13L1 13Q0 13 0 12L0 4Q0 3 1 3" class="ac-color"
    id="path24" />
  <path d="M1 3 15 3Q16 3 16 4L16 5 0 5 0 4Q0 3 1 3M0 11 16 11 16 12Q16 13 15 13L1 13Q0 13 0 12L0 11" class="ac-color1"
    id="path43" />
  <path d="M8 4A1 1 0 008 12 1 1 0 008 4" class="ac-color2" id="path26" />
  <path d="M8 5A1 1 0 008 11 1 1 0 008 5" class="ac-color3" id="path28" />
  <path d="M1 3Q1 2 2 2 3 2 3 3" class="ac-color4" id="path30" />
  <path d="M14 4A1 1 0 0014 4 1 1 0 0014 6 1 1 0 0014 4" class="ac-color5" id="path32" />
</svg>