<?xml version="1.0" encoding="UTF-8" standalone="no"?>
<svg viewBox="0 0 16 16" width="16" height="16" version="1.1" id="svg18" sodipodi:docname="Bluetooth.svg"
  inkscape:version="1.1.2 (0a00cf5339, 2022-02-04)" xmlns:inkscape="http://www.inkscape.org/namespaces/inkscape"
  xmlns:sodipodi="http://sodipodi.sourceforge.net/DTD/sodipodi-0.dtd" xmlns="http://www.w3.org/2000/svg"
  xmlns:svg="http://www.w3.org/2000/svg" xmlns:rdf="http://www.w3.org/1999/02/22-rdf-syntax-ns#"
  xmlns:cc="http://creativecommons.org/ns#" xmlns:dc="http://purl.org/dc/elements/1.1/">
  <metadata id="metadata24">
    <rdf:RDF>
      <cc:Work rdf:about="">
        <dc:format>image/svg+xml</dc:format>
        <dc:type rdf:resource="http://purl.org/dc/dcmitype/StillImage" />
      </cc:Work>
    </rdf:RDF>
  </metadata>
  <defs id="defs22">
    <filter style="color-interpolation-filters:sRGB;" inkscape:label="Drop Shadow" id="filter856">
      <feFlood flood-opacity="0.25098" flood-color="rgb(0,0,0)" result="flood" id="feFlood846" />
      <feComposite in="flood" in2="SourceGraphic" operator="in" result="composite1" id="feComposite848" />
      <feGaussianBlur in="composite1" stdDeviation="0.5" result="blur" id="feGaussianBlur850" />
      <feOffset dx="0" dy="0.5" result="offset" id="feOffset852" />
      <feComposite in="SourceGraphic" in2="offset" operator="over" result="composite2" id="feComposite854" />
    </filter>
    <filter style="color-interpolation-filters:sRGB;" inkscape:label="Drop Shadow" id="filter836">
      <feFlood flood-opacity="0.25098" flood-color="rgb(255,255,255)" result="flood" id="feFlood826" />
      <feComposite in="flood" in2="SourceGraphic" operator="out" result="composite1" id="feComposite828" />
      <feGaussianBlur in="composite1" stdDeviation="0.5" result="blur" id="feGaussianBlur830" />
      <feOffset dx="0" dy="0.5" result="offset" id="feOffset832" />
      <feComposite in="offset" in2="SourceGraphic" operator="atop" result="composite2" id="feComposite834" />
    </filter>
    <filter style="color-interpolation-filters:sRGB;" inkscape:label="Drop Shadow" id="filter37" x="-0.53333333"
      y="-0.25714286" width="2.0666667" height="1.6214286">
      <feFlood flood-opacity="0.25098" flood-color="rgb(0,0,0)" result="flood" id="feFlood27" />
      <feComposite in="flood" in2="SourceGraphic" operator="in" result="composite1" id="feComposite29" />
      <feGaussianBlur in="composite1" stdDeviation="0.5" result="blur" id="feGaussianBlur31" />
      <feOffset dx="0" dy="0.5" result="offset" id="feOffset33" />
      <feComposite in="SourceGraphic" in2="offset" operator="over" result="fbSourceGraphic" id="feComposite35" />
    </filter>
  </defs>
  <sodipodi:namedview pagecolor="#ffffff" bordercolor="#666666" borderopacity="1" objecttolerance="10"
    gridtolerance="10" guidetolerance="10" inkscape:pageopacity="0" inkscape:pageshadow="2" inkscape:window-width="913"
    inkscape:window-height="480" id="namedview20" showgrid="false" inkscape:zoom="6.6802146" inkscape:cx="11.227184"
    inkscape:cy="5.8381358" inkscape:window-x="26" inkscape:window-y="23" inkscape:window-maximized="0"
    inkscape:current-layer="svg18" inkscape:pagecheckerboard="0" />
  <linearGradient id="g0" x1="0%" y1="0%" x2="100%" y2="100%">
    <stop offset="0%" style="stop-color:#4a5065;stop-opacity:1" id="stop2" />
    <stop offset="100%" style="stop-color:#606870;stop-opacity:1" id="stop4" />
  </linearGradient>
  <linearGradient id="g1" x1="0%" y1="0%" x2="100%" y2="100%">
    <stop offset="0%" style="stop-color:#e7e9ec;stop-opacity:1" id="stop7" />
    <stop offset="100%" style="stop-color:#8090b0;stop-opacity:1" id="stop9" />
  </linearGradient>
  <style id="style12">
    .ac-color {
      fill: url(#g0);
    }

    .ac-color1 {
      fill: url(#g1);
    }

    .ac-color2 {
      fill: #000;
    }
  </style>
  <path d="M0 8A1 1 0 0116 8Q16 11 13 12L13 14Q13 16 10 16L6 16Q3 16 3 14L3 12Q0 11 0 8" class="ac-color" id="path14" />
  <path d="M1 8Q1 10.25 4 11.25L4 14Q4 15 6 15L6 13 7 13 7 15 9 15 9 13 10 13 10 15Q12 15 12 14L12 11.25Q15 10.25 15 8A1 1 0 001 8" class="ac-color1" id="path16" />
  <path d="M5 5A1 1 0 005 9 1 1 0 005 5M11 5A1 1 0 0011 9 1 1 0 0011 5M6.5 10.25 8 9 9.5 10.25 9 11 8 10.25 7 11 6.5 10.25"
    class="ac-color2" id="path18" />
</svg>