<?xml version="1.0" encoding="UTF-8" standalone="no"?>
<svg
   viewBox="0 0 16 16"
   width="16"
   height="16"
   version="1.1"
   id="svg53"
   sodipodi:docname="compass.svg"
   inkscape:version="1.1.2 (0a00cf5339, 2022-02-04)"
   xmlns:inkscape="http://www.inkscape.org/namespaces/inkscape"
   xmlns:sodipodi="http://sodipodi.sourceforge.net/DTD/sodipodi-0.dtd"
   xmlns:xlink="http://www.w3.org/1999/xlink"
   xmlns="http://www.w3.org/2000/svg"
   xmlns:svg="http://www.w3.org/2000/svg"
   xmlns:rdf="http://www.w3.org/1999/02/22-rdf-syntax-ns#"
   xmlns:cc="http://creativecommons.org/ns#"
   xmlns:dc="http://purl.org/dc/elements/1.1/">
  <defs
     id="defs22">
    <filter
       style="color-interpolation-filters:sRGB;"
       inkscape:label="Drop Shadow"
       id="filter34"
       x="-0.040000001"
       y="-0.040000001"
       width="1.08"
       height="1.1133333">
      <feFlood
         flood-opacity="0.501961"
         flood-color="rgb(0,0,0)"
         result="flood"
         id="feFlood24" />
      <feComposite
         in="flood"
         in2="SourceGraphic"
         operator="in"
         result="composite1"
         id="feComposite26" />
      <feGaussianBlur
         in="composite1"
         stdDeviation="0.1"
         result="blur"
         id="feGaussianBlur28" />
      <feOffset
         dx="0"
         dy="0.2"
         result="offset"
         id="feOffset30" />
      <feComposite
         in="SourceGraphic"
         in2="offset"
         operator="over"
         result="composite2"
         id="feComposite32" />
    </filter>
    <filter
       style="color-interpolation-filters:sRGB;"
       inkscape:label="Drop Shadow"
       id="filter64"
       x="-0.040000001"
       y="-0.040000001"
       width="1.08"
       height="1.1133333">
      <feFlood
         flood-opacity="0.501961"
         flood-color="rgb(0,0,0)"
         result="flood"
         id="feFlood54" />
      <feComposite
         in="flood"
         in2="SourceGraphic"
         operator="in"
         result="composite1"
         id="feComposite56" />
      <feGaussianBlur
         in="composite1"
         stdDeviation="0.1"
         result="blur"
         id="feGaussianBlur58" />
      <feOffset
         dx="0"
         dy="0.2"
         result="offset"
         id="feOffset60" />
      <feComposite
         in="SourceGraphic"
         in2="offset"
         operator="over"
         result="composite2"
         id="feComposite62" />
    </filter>
    <filter
       style="color-interpolation-filters:sRGB;"
       inkscape:label="Drop Shadow"
       id="filter94"
       x="-0.16"
       y="-0.16"
       width="1.32"
       height="1.4533333">
      <feFlood
         flood-opacity="0.501961"
         flood-color="rgb(0,0,0)"
         result="flood"
         id="feFlood84" />
      <feComposite
         in="flood"
         in2="SourceGraphic"
         operator="in"
         result="composite1"
         id="feComposite86" />
      <feGaussianBlur
         in="composite1"
         stdDeviation="0.2"
         result="blur"
         id="feGaussianBlur88" />
      <feOffset
         dx="0"
         dy="0.4"
         result="offset"
         id="feOffset90" />
      <feComposite
         in="SourceGraphic"
         in2="offset"
         operator="over"
         result="composite2"
         id="feComposite92" />
    </filter>
    <linearGradient
       inkscape:collect="always"
       xlink:href="#g1"
       id="linearGradient89"
       x1="1.5"
       y1="1.5"
       x2="1.5"
       y2="14.5"
       gradientUnits="userSpaceOnUse" />
    <linearGradient
       inkscape:collect="always"
       xlink:href="#g1"
       id="linearGradient91"
       x1="1.5"
       y1="1.5"
       x2="1.5"
       y2="14.5"
       gradientUnits="userSpaceOnUse" />
    <linearGradient
       inkscape:collect="always"
       xlink:href="#g1"
       id="linearGradient93"
       x1="1.5"
       y1="1.5"
       x2="1.5"
       y2="14.5"
       gradientUnits="userSpaceOnUse" />
    <linearGradient
       inkscape:collect="always"
       xlink:href="#g1"
       id="linearGradient95"
       x1="1.5"
       y1="1.5"
       x2="1.5"
       y2="14.5"
       gradientUnits="userSpaceOnUse" />
  </defs>
  <metadata
     id="metadata59">
    <rdf:RDF>
      <cc:Work
         rdf:about="">
        <dc:format>image/svg+xml</dc:format>
        <dc:type
           rdf:resource="http://purl.org/dc/dcmitype/StillImage" />
      </cc:Work>
    </rdf:RDF>
  </metadata>
  <sodipodi:namedview
     pagecolor="#ffffff"
     bordercolor="#666666"
     borderopacity="1"
     objecttolerance="10"
     gridtolerance="10"
     guidetolerance="10"
     inkscape:pageopacity="0"
     inkscape:pageshadow="2"
     inkscape:window-width="1600"
     inkscape:window-height="827"
     id="namedview55"
     showgrid="false"
     inkscape:zoom="18.572337"
     inkscape:cx="8.8034155"
     inkscape:cy="15.318481"
     inkscape:window-x="0"
     inkscape:window-y="0"
     inkscape:window-maximized="1"
     inkscape:current-layer="svg53"
     inkscape:pagecheckerboard="0" />
  <linearGradient
     id="g0"
     x1="0%"
     y1="0%"
     x2="0%"
     y2="100%">
    <stop
       offset="0%"
       style="stop-color:#303234;stop-opacity:1"
       id="stop2" />
    <stop
       offset="100%"
       style="stop-color:#505254;stop-opacity:1"
       id="stop4" />
  </linearGradient>
  <linearGradient
     id="g1"
     x1="0%"
     y1="0%"
     x2="0%"
     y2="100%">
    <stop
       offset="0%"
       style="stop-color:#6a6a6a;stop-opacity:1"
       id="stop26" />
    <stop
       offset="100%"
       style="stop-color:#a6a6a6;stop-opacity:1"
       id="stop28" />
  </linearGradient>
  <linearGradient
     id="g2"
     x1="0%"
     y1="0%"
     x2="100%"
     y2="100%">
    <stop
       offset="0%"
       style="stop-color:#ff6040;stop-opacity:1"
       id="stop12" />
    <stop
       offset="100%"
       style="stop-color:#c00040;stop-opacity:1"
       id="stop14" />
  </linearGradient>
  <linearGradient
     id="g3"
     x1="0%"
     y1="0%"
     x2="100%"
     y2="100%">
    <stop
       offset="0%"
       style="stop-color:#e7e7e7;stop-opacity:1"
       id="stop17" />
    <stop
       offset="100%"
       style="stop-color:#6a6a6a;stop-opacity:1"
       id="stop19" />
  </linearGradient>
  <linearGradient
     id="g4"
     x1="0%"
     y1="0%"
     x2="0%"
     y2="100%">
    <stop
       offset="0%"
       style="stop-color:#00ddff;stop-opacity:1"
       id="stop22" />
    <stop
       offset="100%"
       style="stop-color:#0061e0;stop-opacity:1"
       id="stop24" />
  </linearGradient>
  <linearGradient
     id="g5"
     x1="0%"
     y1="0%"
     x2="0%"
     y2="100%">
    <stop
       offset="0%"
       style="stop-color:#505254;stop-opacity:1"
       id="stop38" />
    <stop
       offset="100%"
       style="stop-color:#303234;stop-opacity:1"
       id="stop40" />
  </linearGradient>
  <linearGradient
     id="g6"
     x1="0%"
     y1="0%"
     x2="100%"
     y2="100%">
    <stop
       offset="0%"
       style="stop-color:#ffe0c0;stop-opacity:0.125"
       id="stop43" />
    <stop
       offset="100%"
       style="stop-color:#ffe0c0;stop-opacity:0.5"
       id="stop45" />
  </linearGradient>
  <linearGradient
     id="g7"
     x1="0%"
     y1="0%"
     x2="100%"
     y2="100%">
    <stop
       offset="0%"
       style="stop-color:#ffffff;stop-opacity:0.5"
       id="stop48" />
    <stop
       offset="100%"
       style="stop-color:#ffffff;stop-opacity:0.125"
       id="stop50" />
  </linearGradient>
  <linearGradient
     id="g8"
     x1="0%"
     y1="0%"
     x2="0%"
     y2="100%">
    <stop
       offset="0%"
       style="stop-color:#ff8040;stop-opacity:0.75"
       id="stop27" />
    <stop
       offset="100%"
       style="stop-color:#ffc060;stop-opacity:0.75"
       id="stop29" />
  </linearGradient>
  <linearGradient
     id="g9"
     x1="0%"
     y1="0%"
     x2="0%"
     y2="100%">
    <stop
       offset="0%"
       style="stop-color:#505254;stop-opacity:1"
       id="stop32" />
    <stop
       offset="100%"
       style="stop-color:#707274;stop-opacity:1"
       id="stop34" />
  </linearGradient>
  <style
     id="style37">
    .ac-color {
      fill: url(#g0);
    }

    .ac-color1 {
      fill: url(#g1);
    }

    .ac-color2 {
      fill: url(#g2);
    }

    .ac-color3 {
      fill: url(#g3);
    }

    .ac-color4 {
      fill: url(#g4);
    }

    .ac-color5 {
      fill: url(#g5);
    }

    .ac-color6 {
      fill: url(#g6);
    }

    .ac-color7 {
      fill: url(#g7);
    }

    .ac-color8 {
      fill: url(#g8);
    }

    .ac-color9 {
      fill: url(#g9);
    }
  </style>
  <path
     d="M4 0 12 0Q16 0 16 4L16 12Q16 16 12 16L4 16Q0 16 0 12L0 4Q0 0 4 0"
     class="ac-color"
     id="path39" />
  <path
     d="M7.75 1.5 8.25 1.5 8.25 3 7.75 3 7.75 1.5M13 7.75 14.5 7.75 14.5 8.25 13 8.25 13 7.75M7.75 13 8.25 13 8.25 14.5 7.75 14.5 7.75 13M1.5 7.75 3 7.75 3 8.25 1.5 8.25 1.5 7.75"
     class="ac-color1"
     id="path42" />
  <g
     transform="rotate(18,8,8)"
     opacity="0.5"
     id="g64">
    <path
       d="m 7.875,1.5 h 0.25 v 1 h -0.25 v -1 M 13.5,7.875 h 1 v 0.25 h -1 V 7.875 M 7.875,13.5 h 0.25 v 1 h -0.25 v -1 M 1.5,7.875 h 1 v 0.25 h -1 v -0.25"
       class="ac-color1"
       id="path62"
       style="fill:url(#linearGradient95)" />
  </g>
  <g
     transform="rotate(36,8,8)"
     opacity="0.5"
     id="g68">
    <path
       d="m 7.875,1.5 h 0.25 v 1 h -0.25 v -1 M 13.5,7.875 h 1 v 0.25 h -1 V 7.875 M 7.875,13.5 h 0.25 v 1 h -0.25 v -1 M 1.5,7.875 h 1 v 0.25 h -1 v -0.25"
       class="ac-color1"
       id="path66"
       style="fill:url(#linearGradient91)" />
  </g>
  <g
     transform="rotate(54,8,8)"
     opacity="0.5"
     id="g72">
    <path
       d="m 7.875,1.5 h 0.25 v 1 h -0.25 v -1 M 13.5,7.875 h 1 v 0.25 h -1 V 7.875 M 7.875,13.5 h 0.25 v 1 h -0.25 v -1 M 1.5,7.875 h 1 v 0.25 h -1 v -0.25"
       class="ac-color1"
       id="path70"
       style="fill:url(#linearGradient93)" />
  </g>
  <g
     transform="rotate(72,8,8)"
     opacity="0.5"
     id="g76">
    <path
       d="m 7.875,1.5 h 0.25 v 1 h -0.25 v -1 M 13.5,7.875 h 1 v 0.25 h -1 V 7.875 M 7.875,13.5 h 0.25 v 1 h -0.25 v -1 M 1.5,7.875 h 1 v 0.25 h -1 v -0.25"
       class="ac-color1"
       id="path74"
       style="fill:url(#linearGradient89)" />
  </g>
  <path
     d="M5 5 8 6.5 11 5 9.5 8 11 11 8 9.5 5 11 6.5 8 5 5"
     class="ac-color8"
     id="path43" />
  <path
     d="M8 3 9 7 13 8 9 9 8 13 7 9 3 8 7 7 8 3"
     class="ac-color9"
     id="path45" />
  <path
     d="M3 3 9 7 7 9 3 3"
     class="ac-color2"
     id="path47"
     style="filter:url(#filter64)" />
  <path
     d="M13 13 7 9 9 7 13 13"
     class="ac-color3"
     id="path49"
     style="filter:url(#filter34)" />
  <path
     d="M3 3 9 7 8 8 3 3"
     class="ac-color6"
     id="path82" />
  <path
     d="M9 7 13 13 8 8 9 7"
     class="ac-color7"
     id="path84" />
  <path
     d="M8 6.5A1 1 0 008 9.5 1 1 0 008 6.5"
     class="ac-color4"
     id="path51"
     style="filter:url(#filter94)" />
  <path
     d="M4 0 12 0Q16 0 16 4L16 12Q16 16 12 16L4 16Q0 16 0 12L0 4Q0 0 4 0M8 1A1 1 90 008 15 1 1 90 008 1"
     class="ac-color5"
     id="path24" />
</svg>
