<?xml version="1.0" encoding="UTF-8" standalone="no"?>
<svg
   viewBox="0 0 16 16"
   width="16"
   height="16"
   version="1.1"
   id="svg18"
   sodipodi:docname="Bluetooth.svg"
   inkscape:version="1.1.2 (0a00cf5339, 2022-02-04)"
   xmlns:inkscape="http://www.inkscape.org/namespaces/inkscape"
   xmlns:sodipodi="http://sodipodi.sourceforge.net/DTD/sodipodi-0.dtd"
   xmlns="http://www.w3.org/2000/svg"
   xmlns:svg="http://www.w3.org/2000/svg"
   xmlns:rdf="http://www.w3.org/1999/02/22-rdf-syntax-ns#"
   xmlns:cc="http://creativecommons.org/ns#"
   xmlns:dc="http://purl.org/dc/elements/1.1/">
  <defs
     id="defs14">
    <filter
       style="color-interpolation-filters:sRGB;"
       inkscape:label="Drop Shadow"
       id="filter26"
       x="-0.035555556"
       y="-0.017142857"
       width="1.0711111"
       height="1.0485714">
      <feFlood
         flood-opacity="0.501961"
         flood-color="rgb(0,0,0)"
         result="flood"
         id="feFlood16" />
      <feComposite
         in="flood"
         in2="SourceGraphic"
         operator="in"
         result="composite1"
         id="feComposite18" />
      <feGaussianBlur
         in="composite1"
         stdDeviation="0.1"
         result="blur"
         id="feGaussianBlur20" />
      <feOffset
         dx="0"
         dy="0.2"
         result="offset"
         id="feOffset22" />
      <feComposite
         in="SourceGraphic"
         in2="offset"
         operator="over"
         result="composite2"
         id="feComposite24" />
    </filter>
  </defs>
  <metadata
     id="metadata24">
    <rdf:RDF>
      <cc:Work
         rdf:about="">
        <dc:format>image/svg+xml</dc:format>
        <dc:type
           rdf:resource="http://purl.org/dc/dcmitype/StillImage" />
      </cc:Work>
    </rdf:RDF>
  </metadata>
  <sodipodi:namedview
     pagecolor="#ffffff"
     bordercolor="#666666"
     borderopacity="1"
     objecttolerance="10"
     gridtolerance="10"
     guidetolerance="10"
     inkscape:pageopacity="0"
     inkscape:pageshadow="2"
     inkscape:window-width="922"
     inkscape:window-height="480"
     id="namedview20"
     showgrid="false"
     inkscape:zoom="16.852722"
     inkscape:cx="4.1833004"
     inkscape:cy="7.7732249"
     inkscape:window-x="26"
     inkscape:window-y="23"
     inkscape:window-maximized="0"
     inkscape:current-layer="svg18"
     inkscape:pagecheckerboard="0" />
  <linearGradient
     id="g0"
     x1="0%"
     y1="0%"
     x2="0%"
     y2="100%">
    <stop
       offset="0%"
       style="stop-color:#c060e0;stop-opacity:1"
       id="stop2" />
    <stop
       offset="100%"
       style="stop-color:#603080;stop-opacity:1"
       id="stop4" />
  </linearGradient>
  <linearGradient
     id="g1"
     x1="0%"
     y1="0%"
     x2="0%"
     y2="100%">
    <stop
       offset="0%"
       style="stop-color:#e7e9ec;stop-opacity:1"
       id="stop7" />
    <stop
       offset="100%"
       style="stop-color:#ddb0ff;stop-opacity:1"
       id="stop9" />
  </linearGradient>
  <style
     id="style12">
    .ac-color {
      fill: url(#g0);
    }
    .ac-color1 {
      fill: url(#g1);
    }
  </style>
  <path
     d="M4 0 12 0Q16 0 16 4L16 12Q16 16 12 16L4 16Q0 16 0 12L0 4Q0 0 4 0"
     class="ac-color"
     id="path14" />
  <path
     d="M4.5 10.5 4.5 11Q4.5 12 5.5 12L10.5 12Q11.5 12 11.5 11L11.5 10.5Q11.5 10 12 10 12.5 10 12.5 10.5L12.5 11Q12.5 13 10.5 13L5.5 13Q3.5 13 3.5 11L3.5 10.5Q3.5 10 4 10 4.5 10 4.5 10.5M7.5 3.5Q7.5 3 8 3 8.5 3 8.5 3.5L8.5 9 10.5 7Q10.875 6.625 11.25 7 11.625 7.375 11.25 7.75L8.5 10.5Q8 11 7.5 10.5L4.75 7.75Q4.375 7.375 4.75 7 5.125 6.625 5.5 7L7.5 9 7.5 3.5"
     class="ac-color1"
     id="path16"
     style="filter:url(#filter26)" />
</svg>
