<?xml version="1.0" encoding="UTF-8" standalone="no"?>
<svg
   viewBox="0 0 16 16"
   width="16"
   height="16"
   version="1.1"
   id="svg25"
   sodipodi:docname="files.svg"
   inkscape:version="1.1.2 (0a00cf5339, 2022-02-04)"
   xmlns:inkscape="http://www.inkscape.org/namespaces/inkscape"
   xmlns:sodipodi="http://sodipodi.sourceforge.net/DTD/sodipodi-0.dtd"
   xmlns="http://www.w3.org/2000/svg"
   xmlns:svg="http://www.w3.org/2000/svg"
   xmlns:rdf="http://www.w3.org/1999/02/22-rdf-syntax-ns#"
   xmlns:cc="http://creativecommons.org/ns#"
   xmlns:dc="http://purl.org/dc/elements/1.1/">
  <defs
     id="defs24">
    <filter
       style="color-interpolation-filters:sRGB;"
       inkscape:label="Drop Shadow"
       id="filter66"
       x="-0.02"
       y="-0.026666667"
       width="1.04"
       height="1.0755556">
      <feFlood
         flood-opacity="0.501961"
         flood-color="rgb(0,0,0)"
         result="flood"
         id="feFlood56" />
      <feComposite
         in="flood"
         in2="SourceGraphic"
         operator="in"
         result="composite1"
         id="feComposite58" />
      <feGaussianBlur
         in="composite1"
         stdDeviation="1"
         result="blur"
         id="feGaussianBlur60" />
      <feOffset
         dx="0"
         dy="0.5"
         result="offset"
         id="feOffset62" />
      <feComposite
         in="SourceGraphic"
         in2="offset"
         operator="over"
         result="composite2"
         id="feComposite64" />
    </filter>
  </defs>
  <metadata
     id="metadata31">
    <rdf:RDF>
      <cc:Work
         rdf:about="">
        <dc:format>image/svg+xml</dc:format>
        <dc:type
           rdf:resource="http://purl.org/dc/dcmitype/StillImage" />
      </cc:Work>
    </rdf:RDF>
  </metadata>
  <sodipodi:namedview
     pagecolor="#ffffff"
     bordercolor="#666666"
     borderopacity="1"
     objecttolerance="10"
     gridtolerance="10"
     guidetolerance="10"
     inkscape:pageopacity="0"
     inkscape:pageshadow="2"
     inkscape:window-width="900"
     inkscape:window-height="508"
     id="namedview27"
     showgrid="false"
     inkscape:zoom="14.75"
     inkscape:cx="14.101695"
     inkscape:cy="8"
     inkscape:window-x="0"
     inkscape:window-y="27"
     inkscape:window-maximized="0"
     inkscape:current-layer="svg25"
     inkscape:pagecheckerboard="0" />
  <linearGradient
     id="g0"
     x1="0%"
     y1="0%"
     x2="0%"
     y2="100%">
    <stop
       offset="0%"
       style="stop-color:#a04020;stop-opacity:1"
       id="stop2" />
    <stop
       offset="100%"
       style="stop-color:#601808;stop-opacity:1"
       id="stop4" />
  </linearGradient>
  <linearGradient
     id="g1"
     x1="0%"
     y1="0%"
     x2="0%"
     y2="100%">
    <stop
       offset="0%"
       style="stop-color:#c47838;stop-opacity:1"
       id="stop7" />
    <stop
       offset="25%"
       style="stop-color:#a05028;stop-opacity:1"
       id="stop9" />
    <stop
       offset="100%"
       style="stop-color:#a05028;stop-opacity:1"
       id="stop11" />
  </linearGradient>
  <linearGradient
     id="g2"
     x1="0%"
     y1="0%"
     x2="0%"
     y2="100%">
    <stop
       offset="0%"
       style="stop-color:#f0c060;stop-opacity:1"
       id="stop12" />
    <stop
       offset="100%"
       style="stop-color:#c06840;stop-opacity:1"
       id="stop14" />
  </linearGradient>
  <style
     id="style17">
    .ac-color {
      fill: url(#g0);
    }
    .ac-color1 {
      fill: url(#g1);
    }
    .ac-color2 {
      fill: url(#g2);
    }
  </style>
  <path
     d="M4 0 12 0Q16 0 16 4L16 12Q16 16 12 16L4 16Q0 16 0 12L0 4Q0 0 4 0"
     class="ac-color"
     id="path19" />
  <path
     d="M3 2.5 6.5 2.5C8.5 2.5 7.5 4 9.5 4L13 4Q14 4 14 5L14 12Q14 13 13 13L3 13Q2 13 2 12L2 3.5Q2 2.5 3 2.5"
     class="ac-color1"
     style="filter:url(#filter66)"
     id="path20" />
  <path
     d="M9.5 4 13 4Q14 4 14 5L14 12Q14 13 13 13L3 13Q2 13 2 12L2 6.5Q2 5.5 3 5.5L6.5 5.5C8.5 5.5 7.5 4 9.5 4"
     class="ac-color2"
     id="path25" />
</svg>
