<?xml version="1.0" encoding="UTF-8" standalone="no"?>
<svg
   viewBox="0 0 16 16"
   width="16"
   height="16"
   version="1.1"
   id="svg39"
   sodipodi:docname="notes.svg"
   inkscape:version="1.1.2 (0a00cf5339, 2022-02-04)"
   xmlns:inkscape="http://www.inkscape.org/namespaces/inkscape"
   xmlns:sodipodi="http://sodipodi.sourceforge.net/DTD/sodipodi-0.dtd"
   xmlns="http://www.w3.org/2000/svg"
   xmlns:svg="http://www.w3.org/2000/svg"
   xmlns:rdf="http://www.w3.org/1999/02/22-rdf-syntax-ns#"
   xmlns:cc="http://creativecommons.org/ns#"
   xmlns:dc="http://purl.org/dc/elements/1.1/">
  <defs
     id="defs34">
    <filter
       style="color-interpolation-filters:sRGB;"
       inkscape:label="Drop Shadow"
       id="filter124"
       x="-0.3047619"
       y="-0.36402116"
       width="1.7365079"
       height="1.6687831">
      <feFlood
         flood-opacity="0.498039"
         flood-color="rgb(0,0,0)"
         result="flood"
         id="feFlood114" />
      <feComposite
         in="flood"
         in2="SourceGraphic"
         operator="in"
         result="composite1"
         id="feComposite116" />
      <feGaussianBlur
         in="composite1"
         stdDeviation="1"
         result="blur"
         id="feGaussianBlur118" />
      <feOffset
         dx="1"
         dy="-0.2"
         result="offset"
         id="feOffset120" />
      <feComposite
         in="SourceGraphic"
         in2="offset"
         operator="over"
         result="fbSourceGraphic"
         id="feComposite122" />
      <feColorMatrix
         result="fbSourceGraphicAlpha"
         in="fbSourceGraphic"
         values="0 0 0 -1 0 0 0 0 -1 0 0 0 0 -1 0 0 0 0 1 0"
         id="feColorMatrix204" />
      <feFlood
         id="feFlood206"
         flood-opacity="0.25098"
         flood-color="rgb(0,0,0)"
         result="flood"
         in="fbSourceGraphic" />
      <feComposite
         in2="fbSourceGraphic"
         id="feComposite208"
         in="flood"
         operator="in"
         result="composite1" />
      <feGaussianBlur
         id="feGaussianBlur210"
         in="composite1"
         stdDeviation="0.5"
         result="blur" />
      <feOffset
         id="feOffset212"
         dx="0.5"
         dy="-0.1"
         result="offset" />
      <feComposite
         in2="offset"
         id="feComposite214"
         in="fbSourceGraphic"
         operator="over"
         result="composite2" />
    </filter>
  </defs>
  <metadata
     id="metadata45">
    <rdf:RDF>
      <cc:Work
         rdf:about="">
        <dc:format>image/svg+xml</dc:format>
        <dc:type
           rdf:resource="http://purl.org/dc/dcmitype/StillImage" />
      </cc:Work>
    </rdf:RDF>
  </metadata>
  <sodipodi:namedview
     pagecolor="#ffffff"
     bordercolor="#666666"
     borderopacity="1"
     objecttolerance="10"
     gridtolerance="10"
     guidetolerance="10"
     inkscape:pageopacity="0"
     inkscape:pageshadow="2"
     inkscape:window-width="864"
     inkscape:window-height="508"
     id="namedview41"
     showgrid="false"
     inkscape:zoom="14.75"
     inkscape:cx="8.0338983"
     inkscape:cy="7.9661017"
     inkscape:window-x="26"
     inkscape:window-y="23"
     inkscape:window-maximized="0"
     inkscape:current-layer="svg39"
     inkscape:pagecheckerboard="0" />
  <linearGradient
     id="g0"
     x1="0%"
     y1="0%"
     x2="0%"
     y2="100%">
    <stop
       offset="0%"
       style="stop-color:#e7e9ec;stop-opacity:1"
       id="stop2" />
    <stop
       offset="100%"
       style="stop-color:#b0d0ff;stop-opacity:1"
       id="stop4" />
  </linearGradient>
  <linearGradient
     id="g1"
     x1="0%"
     y1="0%"
     x2="100%"
     y2="0%">
    <stop
       offset="0%"
       style="stop-color:#80c0ff;stop-opacity:1"
       id="stop26" />
    <stop
       offset="100%"
       style="stop-color:#60b0ff;stop-opacity:1"
       id="stop28" />
  </linearGradient>
  <linearGradient
     id="g2"
     x1="0%"
     y1="0%"
     x2="100%"
     y2="100%">
    <stop
       offset="0%"
       style="stop-color:#ffe080;stop-opacity:1"
       id="stop31" />
    <stop
       offset="100%"
       style="stop-color:#802020;stop-opacity:1"
       id="stop33" />
  </linearGradient>
  <linearGradient
     id="g3"
     x1="0%"
     y1="0%"
     x2="100%"
     y2="100%">
    <stop
       offset="0%"
       style="stop-color:#e063c0;stop-opacity:1"
       id="stop7" />
    <stop
       offset="100%"
       style="stop-color:#701360;stop-opacity:1"
       id="stop9" />
  </linearGradient>
  <linearGradient
     id="g4"
     x1="0%"
     y1="0%"
     x2="100%"
     y2="100%">
    <stop
       offset="0%"
       style="stop-color:#e7e9ec;stop-opacity:1"
       id="stop12" />
    <stop
       offset="100%"
       style="stop-color:#6090c0;stop-opacity:1"
       id="stop14" />
  </linearGradient>
  <linearGradient
     id="g5"
     x1="0%"
     y1="0%"
     x2="100%"
     y2="100%">
    <stop
       offset="0%"
       style="stop-color:#ffc040;stop-opacity:1"
       id="stop17" />
    <stop
       offset="100%"
       style="stop-color:#701010;stop-opacity:1"
       id="stop19" />
  </linearGradient>
  <linearGradient
     id="g6"
     x1="0%"
     y1="0%"
     x2="100%"
     y2="100%">
    <stop
       offset="0%"
       style="stop-color:#404850;stop-opacity:1"
       id="stop22" />
    <stop
       offset="100%"
       style="stop-color:#202830;stop-opacity:1"
       id="stop24" />
  </linearGradient>
  <style
     id="style27">
    .ac-color {
      fill: url(#g0);
    }
    .ac-color1 {
      fill: url(#g1);
    }
    .ac-color2 {
      fill: url(#g2);
    }
    .ac-color3 {
      fill: url(#g3);
    }
    .ac-color4 {
      fill: url(#g4);
    }
    .ac-color5 {
      fill: url(#g5);
    }
    .ac-color6 {
      fill: url(#g6);
    }
  </style>
  <path
     d="M4 0 12 0Q16 0 16 4L16 12Q16 16 12 16L4 16Q0 16 0 12L0 4Q0 0 4 0"
     class="ac-color"
     id="path14" />
  <path
     d="M0 4 16 4 16 4.5 0 4.5 0 4M0 7.75 16 7.75 16 8.25 0 8.25 0 7.75M0 11.5 16 11.5 16 12 0 12 0 11.5"
     class="ac-color1"
     id="path16" />
  <path
     d="M2.75 9.5 9.5 2.75Q10.625 1.625 11.75 2.75L13.25 4.25Q14.375 5.375 13.25 6.5L6.5 13.25 2.75 14Q2 14 2 13.25L2.75 9.5"
     class="ac-color2"
     id="path29"
     style="filter:url(#filter124)" />
  <path
     d="M8.75 3.5 9.5 2.75Q10.625 1.625 11.75 2.75L13.25 4.25Q14.375 5.375 13.25 6.5L12.5 7.25 8.75 3.5"
     class="ac-color3"
     id="path31" />
  <path
     d="M8.75 3.5 12.5 7.25 11.75 8 8 4.25 8.75 3.5"
     class="ac-color4"
     id="path33" />
  <path
     d="M8 4.25 11.75 8 6.5 13.25 6.5 12.5Q6.5 11.75 5.75 11.75L5.75 11.75 5 11.75Q4.25 11.75 4.25 11L4.25 11 4.25 10.25Q4.25 9.5 3.5 9.5L3.5 9.5 2.75 9.5 8 4.25"
     class="ac-color5"
     id="path35" />
  <path
     d="M3.875 13.7563Q3.5 12.5 2.2437 12.125L2 13.25Q2 14 2.75 14L3.875 13.7563"
     class="ac-color6"
     id="path37" />
</svg>
