<?xml version="1.0" encoding="UTF-8" standalone="no"?>
<svg
   viewBox="0 0 16 16"
   width="16"
   height="16"
   version="1.1"
   id="svg25"
   sodipodi:docname="terminal.svg"
   inkscape:version="1.1.2 (0a00cf5339, 2022-02-04)"
   xmlns:inkscape="http://www.inkscape.org/namespaces/inkscape"
   xmlns:sodipodi="http://sodipodi.sourceforge.net/DTD/sodipodi-0.dtd"
   xmlns:xlink="http://www.w3.org/1999/xlink"
   xmlns="http://www.w3.org/2000/svg"
   xmlns:svg="http://www.w3.org/2000/svg"
   xmlns:rdf="http://www.w3.org/1999/02/22-rdf-syntax-ns#"
   xmlns:cc="http://creativecommons.org/ns#"
   xmlns:dc="http://purl.org/dc/elements/1.1/">
  <metadata
     id="metadata31">
    <rdf:RDF>
      <cc:Work
         rdf:about="">
        <dc:format>image/svg+xml</dc:format>
        <dc:type
           rdf:resource="http://purl.org/dc/dcmitype/StillImage" />
      </cc:Work>
    </rdf:RDF>
  </metadata>
  <sodipodi:namedview
     pagecolor="#ffffff"
     bordercolor="#666666"
     borderopacity="1"
     objecttolerance="10"
     gridtolerance="10"
     guidetolerance="10"
     inkscape:pageopacity="0"
     inkscape:pageshadow="2"
     inkscape:window-width="878"
     inkscape:window-height="480"
     id="namedview27"
     showgrid="false"
     inkscape:zoom="14.75"
     inkscape:cx="8.0338983"
     inkscape:cy="8"
     inkscape:window-x="0"
     inkscape:window-y="0"
     inkscape:window-maximized="0"
     inkscape:current-layer="svg25"
     inkscape:pagecheckerboard="0" />
  <linearGradient
     id="g0"
     x1="0%"
     y1="0%"
     x2="0%"
     y2="100%">
    <stop
       offset="0%"
       style="stop-color:#c6d3e0;stop-opacity:1"
       id="stop2" />
    <stop
       offset="100%"
       style="stop-color:#5c5450;stop-opacity:1"
       id="stop4" />
  </linearGradient>
  <linearGradient
     id="g1"
     x1="0%"
     y1="0%"
     x2="0%"
     y2="100%">
    <stop
       offset="0%"
       style="stop-color:#203020;stop-opacity:1"
       id="stop7" />
    <stop
       offset="100%"
       style="stop-color:#304020;stop-opacity:1"
       id="stop9" />
  </linearGradient>
  <linearGradient
     id="g2"
     x1="0%"
     y1="0%"
     x2="100%"
     y2="100%">
    <stop
       offset="0%"
       style="stop-color:#b0ddff;stop-opacity:1"
       id="stop12" />
    <stop
       offset="100%"
       style="stop-color:#e7e9ec;stop-opacity:1"
       id="stop14" />
  </linearGradient>
  <linearGradient
     id="g3"
     x1="100%"
     y1="0%"
     x2="0%"
     y2="100%">
    <stop
       offset="0%"
       style="stop-color:#60b8ff;stop-opacity:1"
       id="stop44" />
    <stop
       offset="100%"
       style="stop-color:#b0ddff;stop-opacity:1"
       id="stop46" />
  </linearGradient>
  <style
     id="style17">
    .ac-color {
      fill: url(#g0);
    }
    .ac-color1 {
      fill: #000;
    }
    .ac-color2 {
      fill: url(#g1);
    }
    .ac-color3 {
      fill: #40a060;
      opacity: 0.15;
    }
    .ac-color4 {
      fill: #00ff00;
    }
  </style>
  <path
     d="M4 0 12 0Q16 0 16 4L16 12Q16 16 12 16L4 16Q0 16 0 12L0 4Q0 0 4 0"
     class="ac-color"
     id="path19" />
  <path
     d="M4 .75 12 .75Q15.25.75 15.25 4L15.25 12Q15.25 15.25 12 15.25L4 15.25Q.75 15.25.75 12L.75 4Q.75.75 4 .75"
     class="ac-color1"
     id="path21" />
  <path
     d="M4 2 12 2Q14 2 14 4L14 12Q14 14 12 14L4 14Q2 14 2 12L2 4Q2 2 4 2"
     class="ac-color2"
     id="path22" />
  <path
     d="M4 2 4.25 2 4.25 4 6.25 4 6.25 2 6.5 2 6.5 4 8.5 4 8.5 2 8.75 2 8.75 4 10.75 4 10.75 2 11 2 11 4 13 4 13 2.1725Q13.1312 2.225 13.25 2.3L13.25 4 14 4 14 4.25 13.25 4.25 13.25 6.25 14 6.25 14 6.5 13.25 6.5 13.25 8.5 14 8.5 14 8.75 13.25 8.75 13.25 10.75 14 10.75 14 11 13.25 11 13.25 13 13.825 13Q13.7875 13.1125 13.6975 13.25L13.25 13.25 13.25 13.6975Q13.1125 13.7875 13 13.825L13 13.25 11 13.25 11 14 10.75 14 10.75 13.25 8.75 13.25 8.75 14 8.5 14 8.5 13.25 6.5 13.25 6.5 14 6.25 14 6.25 13.25 4.25 13.25 4.25 14 4 14 4 13.25 2.3 13.25Q2.225 13.1312 2.175 13L4 13 4 11 2 11 2 10.75 4 10.75 4 8.75 2 8.75 2 8.5 4 8.5 4 6.5 2 6.5 2 6.25 4 6.25 4 4.25 2 4.25 2 4 4 4 4 2M4.25 4.25 4.25 6.25 6.25 6.25 6.25 4.25 4.25 4.25M6.5 4.25 6.5 6.25 8.5 6.25 8.5 4.25 6.5 4.25M8.75 4.25 8.75 6.25 10.75 6.25 10.75 4.25 8.75 4.25M11 4.25 11 6.25 13 6.25 13 4.25 11 4.25M4.25 6.5 4.25 8.5 6.25 8.5 6.25 6.5 4.25 6.5M6.5 6.5 6.5 8.5 8.5 8.5 8.5 6.5 6.5 6.5M8.75 6.5 8.75 8.5 10.75 8.5 10.75 6.5 8.75 6.5M11 6.5 11 8.5 13 8.5 13 6.5 11 6.5M4.25 8.75 4.25 10.75 6.25 10.75 6.25 8.75 4.25 8.75M6.5 8.75 6.5 10.75 8.5 10.75 8.5 8.75 6.5 8.75M8.75 8.75 8.75 10.75 10.75 10.75 10.75 8.75 8.5 8.75M11 8.75 11 10.75 13 10.75 13 8.75 11 8.75M4.25 11 4.25 13 6.25 13 6.25 11 4.25 11M6.5 11 6.5 13 8.5 13 8.5 11 6.5 11M8.75 11 8.75 13 10.75 13 10.75 11 8.75 11M11 11 11 13 13 13 13 11 11 11"
     class="ac-color3"
     id="path23" />
  <path
     d="M2 8 4 8 6 10 10 6 12 8 14 8 14 9 11.625 9 10 7.375 6 11.375 3.625 9 2 9"
     class="ac-color4"
     id="path23" />
</svg>
