<svg viewBox="0 0 32 16" width="196" height="96" xmlns="http://www.w3.org/2000/svg">
  <style>
    .ac-color {
      fill: #40a060;
    }
    .ac-color1 {
      fill: #c00040;
    }
  </style>
  <path d="M8 0A1 1 0 008 16 1 1 0 008 0M8 15A1 1 0 018 1 1 1 0 018 15M5 5A1 1 0 005 7 1 1 0 005 5M11 5A1 1 0 0011 7 1 1 0 0011 5M5 9 11 9A1 1 0 015 9" class="ac-color"></path>
  <path d="M24 0A1 1 0 0024 16 1 1 0 0024 0M24 15A1 1 0 0124 1 1 1 0 0124 15M21 5A1 1 0 0021 7 1 1 0 0021 5M27 5A1 1 0 0027 7 1 1 0 0027 5M21 12 22 12A1 1 0 0126 12L27 12A1 1 0 0021 12" class="ac-color1"></path>
</svg>
