<?xml version="1.0" encoding="UTF-8" standalone="no"?>
<svg
   viewBox="0 0 16 16"
   width="16"
   height="16"
   version="1.1"
   id="svg20"
   sodipodi:docname="costcontrol.svg"
   inkscape:version="1.1.2 (0a00cf5339, 2022-02-04)"
   xmlns:inkscape="http://www.inkscape.org/namespaces/inkscape"
   xmlns:sodipodi="http://sodipodi.sourceforge.net/DTD/sodipodi-0.dtd"
   xmlns="http://www.w3.org/2000/svg"
   xmlns:svg="http://www.w3.org/2000/svg"
   xmlns:rdf="http://www.w3.org/1999/02/22-rdf-syntax-ns#"
   xmlns:cc="http://creativecommons.org/ns#"
   xmlns:dc="http://purl.org/dc/elements/1.1/">
  <defs
     id="defs15">
    <filter
       style="color-interpolation-filters:sRGB;"
       inkscape:label="Drop Shadow"
       id="filter197"
       x="0"
       y="0"
       width="1"
       height="1.0833333">
      <feFlood
         flood-opacity="0.501961"
         flood-color="rgb(96,255,128)"
         result="flood"
         id="feFlood187" />
      <feComposite
         in="flood"
         in2="SourceGraphic"
         operator="out"
         result="composite1"
         id="feComposite189" />
      <feGaussianBlur
         in="composite1"
         stdDeviation="0"
         result="blur"
         id="feGaussianBlur191" />
      <feOffset
         dx="0"
         dy="1"
         result="offset"
         id="feOffset193" />
      <feComposite
         in="offset"
         in2="SourceGraphic"
         operator="atop"
         result="composite2"
         id="feComposite195" />
    </filter>
  </defs>
  <metadata
     id="metadata26">
    <rdf:RDF>
      <cc:Work
         rdf:about="">
        <dc:format>image/svg+xml</dc:format>
        <dc:type
           rdf:resource="http://purl.org/dc/dcmitype/StillImage" />
      </cc:Work>
    </rdf:RDF>
  </metadata>
  <sodipodi:namedview
     pagecolor="#ffffff"
     bordercolor="#666666"
     borderopacity="1"
     objecttolerance="10"
     gridtolerance="10"
     guidetolerance="10"
     inkscape:pageopacity="0"
     inkscape:pageshadow="2"
     inkscape:window-width="922"
     inkscape:window-height="480"
     id="namedview22"
     showgrid="false"
     inkscape:zoom="14.75"
     inkscape:cx="9.1864407"
     inkscape:cy="8"
     inkscape:window-x="26"
     inkscape:window-y="23"
     inkscape:window-maximized="0"
     inkscape:current-layer="svg20"
     inkscape:pagecheckerboard="0" />
  <linearGradient
     id="g0"
     x1="0%"
     y1="0%"
     x2="0%"
     y2="100%">
    <stop
       offset="0%"
       style="stop-color:#303030;stop-opacity:1"
       id="stop2" />
    <stop
       offset="100%"
       style="stop-color:#101010;stop-opacity:1"
       id="stop4" />
  </linearGradient>
  <linearGradient
     id="g1"
     x1="0%"
     y1="0%"
     x2="0%"
     y2="100%">
    <stop
       offset="0%"
       style="stop-color:#414141;stop-opacity:1"
       id="stop2" />
    <stop
       offset="100%"
       style="stop-color:#212121;stop-opacity:1"
       id="stop4" />
  </linearGradient>
  <linearGradient
     id="g2"
     x1="0%"
     y1="0%"
     x2="0%"
     y2="100%">
    <stop
       offset="0%"
       style="stop-color:#ffffff;stop-opacity:1"
       id="stop7" />
    <stop
       offset="100%"
       style="stop-color:#e7e9ec;stop-opacity:1"
       id="stop9" />
  </linearGradient>
  <linearGradient
     id="g3"
     x1="0%"
     y1="0%"
     x2="0%"
     y2="100%">
    <stop
       offset="0%"
       style="stop-color:#a6a6a6;stop-opacity:1"
       id="stop7" />
    <stop
       offset="100%"
       style="stop-color:#101010;stop-opacity:0"
       id="stop9" />
  </linearGradient>
  <linearGradient
     id="g4"
     x1="0%"
     y1="0%"
     x2="0%"
     y2="100%">
    <stop
       offset="0%"
       style="stop-color:#00ddff;stop-opacity:1"
       id="stop7" />
    <stop
       offset="100%"
       style="stop-color:#0061e0;stop-opacity:1"
       id="stop9" />
  </linearGradient>
  <style
     id="style12">
    .ac-color {
      fill: url(#g0);
    }
    .ac-color1 {
      fill: url(#g1);
    }
    .ac-color2 {
      fill: url(#g2);
    }
    .ac-color3 {
      fill: url(#g3);
    }
    .ac-color4 {
      fill: url(#g4);
    }
  </style>
  <path
     d="M4 0 12 0Q16 0 16 4L16 12Q16 16 12 16L4 16Q0 16 0 12L0 4Q0 0 4 0"
     class="ac-color"
     id="path14" />
  <path
     d="M5 0 5.5 0 5.5 16 5 16 5 0M10.5 0 11 0 11 16 10.5 16 10.5 0"
     class="ac-color1"
     id="path16" />
  <path
     d="M0 9 2 9 4 11 10 5 14 9 16 9 16 10 13.5 10 10 6.5 4 12.5 1.55 10 0 10 0 9 0 9"
     class="ac-color2"
     id="path18" />
  <path
     d="M0 10 1.5 10 4 12.5 10 6.5 13.5 10 16 10 16 12Q16 16 12 16L4 16Q0 16 0 12L0 10"
     class="ac-color3"
     id="path20" />
  <path
     d="M7.5 0 7.5 16 8 16 8 0 7.5 0M7.75 7A1 1 0 007.75 9 1 1 0 007.75 7"
     class="ac-color4"
     id="path20" />
</svg>
