<svg viewBox="0 0 16 16" width="16" height="16" xmlns="http://www.w3.org/2000/svg" fill="#858585" fill-opacity="1">
  <path d="M3 3 4 3 3.75 4 9.75 4 10 3 11 3Q14 3 14 6L14 10Q14 13 11 13L8.5 13 9 12 5 12 5.05 13 3 13Q0 13 0 10L0 6Q0 3 3 3M14.5 6 15 6Q16 6 16 7L16 9Q16 10 15 10L14.5 10 14.5 6M1 6 1 10Q1 12 3 12L11 12Q13 12 13 10L13 6Q13 4 11 4L3 4Q1 4 1 6M5 3Q5.25 2 6.25 2L8 2Q9.25 2 9 3L8 7 9 7Q10.25 7 10 8L8 12Q6 16 6 12L6 9 5 9Q3.75 9 4 8L5 3"></path>
  <path d="M3 5 5 5Q6 5 6 6L6 10Q6 11 5 11L3 11Q2 11 2 10L2 6Q2 5 3 5" opacity="0.3" opacity="0.3"></path>
</svg>
