<svg viewBox="0 0 16 16" width="16" height="16" xmlns="http://www.w3.org/2000/svg" fill="#fff" fill-opacity="1">
  <path d="M2 0 5 0Q7 0 7 2L7 4Q7 6 5 6L2 6Q0 6 0 4L0 2Q0 0 2 0M2 8 5 8Q7 8 7 10L7 14Q7 16 5 16L2 16Q0 16 0 14L0 10Q0 8 2 8M9 2Q9 0 11 0L14 0Q16 0 16 2L16 14Q16 16 14 16L11 16Q9 16 9 14L9 2M1 2 1 4Q1 5 2 5L5 5Q6 5 6 4L6 2Q6 1 5 1L2 1Q1 1 1 2M1 10 1 14Q1 15 2 15L5 15Q6 15 6 14L6 10Q6 9 5 9L2 9Q1 9 1 10M10 2 10 14Q10 15 11 15L14 15Q15 15 15 14L15 2Q15 1 14 1L11 1Q10 1 10 2"></path>
</svg>
