<?xml version="1.0" encoding="UTF-8" standalone="no"?>
<svg
   viewBox="0 0 16 16"
   width="16"
   height="16"
   version="1.1"
   id="svg20"
   sodipodi:docname="calculator.svg"
   inkscape:version="1.1.2 (0a00cf5339, 2022-02-04)"
   xmlns:inkscape="http://www.inkscape.org/namespaces/inkscape"
   xmlns:sodipodi="http://sodipodi.sourceforge.net/DTD/sodipodi-0.dtd"
   xmlns="http://www.w3.org/2000/svg"
   xmlns:svg="http://www.w3.org/2000/svg"
   xmlns:rdf="http://www.w3.org/1999/02/22-rdf-syntax-ns#"
   xmlns:cc="http://creativecommons.org/ns#"
   xmlns:dc="http://purl.org/dc/elements/1.1/">
  <defs
     id="defs16">
    <filter
       style="color-interpolation-filters:sRGB;"
       inkscape:label="Drop Shadow"
       id="filter28"
       x="-0.02"
       y="-0.02"
       width="1.04"
       height="1.0566667">
      <feFlood
         flood-opacity="0.501961"
         flood-color="rgb(0,0,0)"
         result="flood"
         id="feFlood18" />
      <feComposite
         in="flood"
         in2="SourceGraphic"
         operator="out"
         result="composite1"
         id="feComposite20" />
      <feGaussianBlur
         in="composite1"
         stdDeviation="0.1"
         result="blur"
         id="feGaussianBlur22" />
      <feOffset
         dx="0"
         dy="0.2"
         result="offset"
         id="feOffset24" />
      <feComposite
         in="offset"
         in2="SourceGraphic"
         operator="atop"
         result="composite2"
         id="feComposite26" />
    </filter>
    <filter
       style="color-interpolation-filters:sRGB;"
       inkscape:label="Drop Shadow"
       id="filter58"
       x="-0.048000001"
       y="-0.080000001"
       width="1.096"
       height="1.2266667">
      <feFlood
         flood-opacity="0.501961"
         flood-color="rgb(0,0,0)"
         result="flood"
         id="feFlood48" />
      <feComposite
         in="flood"
         in2="SourceGraphic"
         operator="out"
         result="composite1"
         id="feComposite50" />
      <feGaussianBlur
         in="composite1"
         stdDeviation="0.1"
         result="blur"
         id="feGaussianBlur52" />
      <feOffset
         dx="0"
         dy="0.2"
         result="offset"
         id="feOffset54" />
      <feComposite
         in="offset"
         in2="SourceGraphic"
         operator="atop"
         result="composite2"
         id="feComposite56" />
    </filter>
  </defs>
  <metadata
     id="metadata26">
    <rdf:RDF>
      <cc:Work
         rdf:about="">
        <dc:format>image/svg+xml</dc:format>
        <dc:type
           rdf:resource="http://purl.org/dc/dcmitype/StillImage" />
      </cc:Work>
    </rdf:RDF>
  </metadata>
  <sodipodi:namedview
     pagecolor="#ffffff"
     bordercolor="#666666"
     borderopacity="1"
     objecttolerance="10"
     gridtolerance="10"
     guidetolerance="10"
     inkscape:pageopacity="0"
     inkscape:pageshadow="2"
     inkscape:window-width="913"
     inkscape:window-height="480"
     id="namedview22"
     showgrid="false"
     inkscape:zoom="14.75"
     inkscape:cx="9.1525424"
     inkscape:cy="8"
     inkscape:window-x="26"
     inkscape:window-y="23"
     inkscape:window-maximized="0"
     inkscape:current-layer="svg20"
     inkscape:pagecheckerboard="0" />
  <linearGradient
     id="g0"
     x1="0%"
     y1="0%"
     x2="0%"
     y2="100%">
    <stop
       offset="0%"
       style="stop-color:#ffffff;stop-opacity:1"
       id="stop2" />
    <stop
       offset="100%"
       style="stop-color:#b0ddff;stop-opacity:1"
       id="stop4" />
  </linearGradient>
  <linearGradient
     id="g1"
     x1="0%"
     y1="0%"
     x2="0%"
     y2="100%">
    <stop
       offset="0%"
       style="stop-color:#60e080;stop-opacity:1"
       id="stop7" />
    <stop
       offset="100%"
       style="stop-color:#40a060;stop-opacity:1"
       id="stop9" />
  </linearGradient>
  <style
     id="style12">
    .ac-color {
      fill: url(#g0);
    }
    .ac-color1 {
      fill: url(#g1);
    }
    .ac-color2 {
      fill: #414141;
    }
    .ac-color3 {
      fill: #205030;
    }
  </style>
  <path
     d="M4 0 12 0Q16 0 16 4L16 12Q16 16 12 16L4 16Q0 16 0 12L0 4Q0 0 4 0"
     class="ac-color"
     id="path14" />
  <path
     d="M4 0 12 0Q16 0 16 4L16 12Q16 16 12 16L4 16Q0 16 0 12L0 4Q0 0 4 0M8 14 8 10Q8 8 10 8L14 8Q15 8 15 7L15 4Q15 1 12 1L4 1Q1 1 1 4L1 12Q1 15 4 15L6 15 7 15Q8 15 8 14"
     class="ac-color1"
     id="path16" />
  <path
     d="M4 4 4 3Q4 2.5 4.5 2.5 5 2.5 5 3L5 4 6 4Q6.5 4 6.5 4.5 6.5 5 6 5L5 5 5 6Q5 6.5 4.5 6.5 4 6.5 4 6L4 5 3 5Q2.5 5 2.5 4.5 2.5 4 3 4L4 4M10 4 13 4Q13.5 4 13.5 4.5 13.5 5 13 5L10 5Q9.5 5 9.5 4.5 9.5 4 10 4M2.75 12.5Q2.375 12.875 2.75 13.25 3.125 13.625 3.5 13.25L4.5 12.25 5.5 13.25Q5.875 13.625 6.25 13.25 6.625 12.875 6.25 12.5L5.25 11.5 6.25 10.5Q6.625 10.125 6.25 9.75 5.875 9.375 5.5 9.75L4.5 10.75 3.5 9.75Q3.125 9.375 2.75 9.75 2.375 10.125 2.75 10.5L3.75 11.5 2.75 12.5"
     class="ac-color2"
     id="path18"
     style="filter:url(#filter28)" />
  <path
     d="M10 10 13 10Q13.5 10 13.5 10.5 13.5 11 13 11L10 11Q9.5 11 9.5 10.5 9.5 10 10 10M10 12 13 12Q13.5 12 13.5 12.5 13.5 13 13 13L10 13Q9.5 13 9.5 12.5 9.5 12 10 12"
     class="ac-color3"
     id="path45"
     style="filter:url(#filter58)" />
</svg>
