<?xml version="1.0" encoding="UTF-8" standalone="no"?>
<svg
   viewBox="0 0 16 16"
   width="34"
   height="34"
   version="1.1"
   id="svg18"
   sodipodi:docname="sms.svg"
   inkscape:version="1.1.2 (0a00cf5339, 2022-02-04)"
   xmlns:inkscape="http://www.inkscape.org/namespaces/inkscape"
   xmlns:sodipodi="http://sodipodi.sourceforge.net/DTD/sodipodi-0.dtd"
   xmlns="http://www.w3.org/2000/svg"
   xmlns:svg="http://www.w3.org/2000/svg"
   xmlns:rdf="http://www.w3.org/1999/02/22-rdf-syntax-ns#"
   xmlns:cc="http://creativecommons.org/ns#"
   xmlns:dc="http://purl.org/dc/elements/1.1/">
  <defs
     id="defs14">
    <filter
       style="color-interpolation-filters:sRGB;"
       inkscape:label="Drop Shadow"
       id="filter86"
       x="-0.48"
       y="-0.53"
       width="1.96"
       height="2.06">
      <feFlood
         flood-opacity="1"
         flood-color="#7289DA"
         result="flood"
         id="feFlood76" />
      <feComposite
         in="flood"
         in2="SourceGraphic"
         operator="out"
         result="composite1"
         id="feComposite78" />
      <feGaussianBlur
         in="composite1"
         stdDeviation="1"
         result="blur"
         id="feGaussianBlur80" />
      <feOffset
         dx="0"
         dy="-0.5"
         result="offset"
         id="feOffset82" />
      <feComposite
         in="offset"
         in2="SourceGraphic"
         operator="atop"
         result="fbSourceGraphic"
         id="feComposite84" />
      <feColorMatrix
         result="fbSourceGraphicAlpha"
         in="fbSourceGraphic"
         values="0 0 0 -1 0 0 0 0 -1 0 0 0 0 -1 0 0 0 0 1 0"
         id="feColorMatrix106" />
      <feFlood
         id="feFlood108"
         flood-opacity="0.501961"
         flood-color="rgb(0,0,0)"
         result="flood"
         in="fbSourceGraphic" />
      <feComposite
         in2="fbSourceGraphic"
         id="feComposite110"
         in="flood"
         operator="in"
         result="composite1" />
      <feGaussianBlur
         id="feGaussianBlur112"
         in="composite1"
         stdDeviation="1"
         result="blur" />
      <feOffset
         id="feOffset114"
         dx="0"
         dy="0.5"
         result="offset" />
      <feComposite
         in2="offset"
         id="feComposite116"
         in="fbSourceGraphic"
         operator="over"
         result="composite2" />
    </filter>
  </defs>
  <metadata
     id="metadata24">
    <rdf:RDF>
      <cc:Work
         rdf:about="">
        <dc:format>image/svg+xml</dc:format>
        <dc:type
           rdf:resource="http://purl.org/dc/dcmitype/StillImage" />
      </cc:Work>
    </rdf:RDF>
  </metadata>
  <sodipodi:namedview
     pagecolor="#ffffff"
     bordercolor="#666666"
     borderopacity="1"
     objecttolerance="10"
     gridtolerance="10"
     guidetolerance="10"
     inkscape:pageopacity="0"
     inkscape:pageshadow="2"
     inkscape:window-width="1600"
     inkscape:window-height="815"
     id="namedview20"
     showgrid="false"
     inkscape:zoom="14.75"
     inkscape:cx="7.9661017"
     inkscape:cy="7.9661017"
     inkscape:window-x="0"
     inkscape:window-y="0"
     inkscape:window-maximized="1"
     inkscape:current-layer="svg18"
     inkscape:pagecheckerboard="0" />
  <linearGradient
     id="g0"
     x1="0%"
     y1="0%"
     x2="0%"
     y2="100%">
    <stop
       offset="0%"
       style="stop-color:#7289DA;stop-opacity:1"
       id="stop2" />
    <stop
       offset="100%"
       style="stop-color:#3a498A;stop-opacity:1"
       id="stop4" />
  </linearGradient>
  <linearGradient
     id="g1"
     x1="0%"
     y1="0%"
     x2="0%"
     y2="100%">
    <stop
       offset="0%"
       style="stop-color:#ffffff;stop-opacity:1"
       id="stop7" />
    <stop
       offset="100%"
       style="stop-color:#ddddff;stop-opacity:1"
       id="stop9" />
  </linearGradient>
  <style
     id="style12">
    .ac-color {
      fill: url(#g0);
    }

    .ac-color1 {
      fill: url(#g1);
    }
  </style>
  <path
     d="M4 0 12 0Q16 0 16 4L16 12Q16 16 12 16L4 16Q0 16 0 12L0 4Q0 0 4 0"
     class="ac-color"
     id="path24" />
  <path
     d="M12.1585 4.185a9.8955 9.8955 90 00-2.4425-.7575.037.037 90 00-.0395.0185c-.105.1875-.222.432-.304.625a9.135 9.135 90 00-2.7435 0 6.32 6.32 90 00-.3085-.625.0385.0385 90 00-.0395-.0185A9.868 9.868 90 003.8385 4.185a.035.035 90 00-.016.0135C2.2665 6.523 1.84 8.79 2.0495 11.0285a.041.041 90 00.0155.0285 9.95 9.95 90 002.9965 1.515.039.039 90 00.042-.014 7.045 7.045 90 00.613-.997.038.038 90 00-.0205-.053 6.5535 6.5535 90 01-.936-.446.0385.0385 90 01-.004-.064 5.1 5.1 90 00.186-.146.037.037 90 01.0385-.005c1.964.8965 4.09.8965 6.031 0a.037.037 90 01.039.005c.06.049.123.099.1865.146a.0385.0385 90 01-.003.0635 6.1495 6.1495 90 01-.9365.446.0385.0385 90 00-.0205.0535c.18.349.386.681.6125.9965a.038.038 90 00.042.014 9.9195 9.9195 90 003.001-1.515.0385.0385 90 00.016-.027c.25-2.5885-.419-4.837-1.7745-6.83a.0305.0305 90 00-.0155-.015zM6.01 9.665c-.5915 0-1.0785-.5425-1.0785-1.2095 0-.6665.478-1.2095 1.0785-1.2095.605 0 1.088.548 1.0785 1.21 0 .6665-.478 1.209-1.0785 1.209zm3.9875 0c-.5915 0-1.0785-.5425-1.0785-1.2095 0-.6665.4775-1.2095 1.0785-1.2095.605 0 1.088.548 1.0785 1.21 0 .6665-.473 1.209-1.0785 1.209z"
     class="ac-color1"
     id="path16"
     style="filter:url(#filter86)" />
</svg>
