<?xml version="1.0" encoding="UTF-8" standalone="no"?>
<svg
   viewBox="0 0 16 16"
   width="16"
   height="16"
   version="1.1"
   id="svg18"
   sodipodi:docname="ftu.svg"
   inkscape:version="1.1.2 (0a00cf5339, 2022-02-04)"
   xmlns:inkscape="http://www.inkscape.org/namespaces/inkscape"
   xmlns:sodipodi="http://sodipodi.sourceforge.net/DTD/sodipodi-0.dtd"
   xmlns:xlink="http://www.w3.org/1999/xlink"
   xmlns="http://www.w3.org/2000/svg"
   xmlns:svg="http://www.w3.org/2000/svg">
  <sodipodi:namedview
     id="namedview20"
     pagecolor="#ffffff"
     bordercolor="#666666"
     borderopacity="1.0"
     inkscape:pageshadow="2"
     inkscape:pageopacity="0.0"
     inkscape:pagecheckerboard="0"
     showgrid="false"
     inkscape:zoom="36.8125"
     inkscape:cx="8"
     inkscape:cy="8"
     inkscape:window-width="1600"
     inkscape:window-height="815"
     inkscape:window-x="0"
     inkscape:window-y="0"
     inkscape:window-maximized="1"
     inkscape:current-layer="backdrop" />
  <linearGradient
     id="g0"
     x1="0%"
     y1="0%"
     x2="0%"
     y2="100%">
    <stop
       offset="0%"
       style="stop-color:#ffffff;stop-opacity:1"
       id="stop2" />
    <stop
       offset="100%"
       style="stop-color:#ffffff;stop-opacity:1"
       id="stop4" />
  </linearGradient>
  <linearGradient
     id="g1"
     x1="0%"
     y1="0%"
     x2="100%"
     y2="100%">
    <stop
       offset="0%"
       style="stop-color:#0061e0;stop-opacity:1"
       id="stop3" />
    <stop
       offset="100%"
       style="stop-color:#00ddff;stop-opacity:1"
       id="stop5" />
  </linearGradient>
  <linearGradient
     id="g2"
     x1="0%"
     y1="0%"
     x2="100%"
     y2="100%">
    <stop
       offset="0%"
       style="stop-color:#b0ddff;stop-opacity:0.5"
       id="stop7" />
    <stop
       offset="100%"
       style="stop-color:#b0ddff;stop-opacity:0.5"
       id="stop9" />
  </linearGradient>
  <style
     id="style12">
      .ac-color {
         fill: url(#g0);
      }

      .ac-color1 {
         fill: url(#g1);
      }

      .ac-color2 {
         fill: url(#g2);
      }
   </style>
  <clipPath
     id="clip">
    <path
       d="M10 5 4 5Q3 5 3 6L3 12Q3 13 4 13L10 13Q11 13 11 12L11 6Q11 5 10 5"
       id="path21" />
  </clipPath>
  <filter
     id="blur"
     width="1.3"
     height="1.3"
     x="-0.15"
     y="-0.15">
    <!-- insert a neutral background color to prevent the backdrop showing
         through blurred regions with alpa < 1 -->
    <feFlood
       flood-color="#fff"
       result="neutral"
       id="feFlood18" />
    <feGaussianBlur
       in="SourceGraphic"
       stdDeviation="1"
       result="blurred"
       id="feGaussianBlur20" />
    <feMerge
       id="feMerge26">
      <feMergeNode
         in="neutral"
         id="feMergeNode22" />
      <feMergeNode
         in="blurred"
         id="feMergeNode24" />
    </feMerge>
  </filter>
  <!-- group everything you want to include in the backdrop -->
  <g
     id="backdrop">
    <path
       d="M4 0 12 0Q16 0 16 4L16 12Q16 16 12 16L4 16Q0 16 0 12L0 4Q0 0 4 0"
       class="ac-color"
       id="path14" />
    <path
       d="M6 3 12 3Q13 3 13 4L13 10Q13 11 12 11L6 11Q5 11 5 10L5 4Q5 3 6 3"
       class="ac-color1"
       id="path19" />
  </g>
  <!-- make sure the clip-path is applied after the filter -->
  <g
     style="clip-path: url(#clip)"
     clip-path="url(#clip)"
     id="g34">
    <use
       xlink:href="#backdrop"
       style="filter: url(#blur)"
       id="use32" />
  </g>
  <use
     xlink:href="#rect"
     style="fill:none;stroke:black"
     id="use36" />
  <path
     d="M10 5 4 5Q3 5 3 6L3 12Q3 13 4 13L10 13Q11 13 11 12L11 6Q11 5 10 5"
     class="ac-color2"
     id="path22" />
</svg>
