<?xml version="1.0" encoding="UTF-8" standalone="no"?>
<svg
   viewBox="0 0 16 16"
   width="16"
   height="16"
   version="1.1"
   id="svg18"
   sodipodi:docname="newspaper.svg"
   inkscape:version="1.1.2 (0a00cf5339, 2022-02-04)"
   xmlns:inkscape="http://www.inkscape.org/namespaces/inkscape"
   xmlns:sodipodi="http://sodipodi.sourceforge.net/DTD/sodipodi-0.dtd"
   xmlns="http://www.w3.org/2000/svg"
   xmlns:svg="http://www.w3.org/2000/svg"
   xmlns:rdf="http://www.w3.org/1999/02/22-rdf-syntax-ns#"
   xmlns:cc="http://creativecommons.org/ns#"
   xmlns:dc="http://purl.org/dc/elements/1.1/">
  <defs
     id="defs27">
    <filter
       style="color-interpolation-filters:sRGB;"
       inkscape:label="Drop Shadow"
       id="filter92"
       x="-0.017142857"
       y="-0.015"
       width="1.0485714"
       height="1.03">
      <feFlood
         flood-opacity="0.25098"
         flood-color="rgb(0,0,0)"
         result="flood"
         id="feFlood82" />
      <feComposite
         in="flood"
         in2="SourceGraphic"
         operator="in"
         result="composite1"
         id="feComposite84" />
      <feGaussianBlur
         in="composite1"
         stdDeviation="0.1"
         result="blur"
         id="feGaussianBlur86" />
      <feOffset
         dx="0.2"
         dy="0"
         result="offset"
         id="feOffset88" />
      <feComposite
         in="SourceGraphic"
         in2="offset"
         operator="over"
         result="composite2"
         id="feComposite90" />
    </filter>
  </defs>
  <metadata
     id="metadata24">
    <rdf:RDF>
      <cc:Work
         rdf:about="">
        <dc:format>image/svg+xml</dc:format>
        <dc:type
           rdf:resource="http://purl.org/dc/dcmitype/StillImage" />
      </cc:Work>
    </rdf:RDF>
  </metadata>
  <sodipodi:namedview
     pagecolor="#ffffff"
     bordercolor="#666666"
     borderopacity="1"
     objecttolerance="10"
     gridtolerance="10"
     guidetolerance="10"
     inkscape:pageopacity="0"
     inkscape:pageshadow="2"
     inkscape:window-width="922"
     inkscape:window-height="480"
     id="namedview20"
     showgrid="false"
     inkscape:zoom="14.75"
     inkscape:cx="8.0338983"
     inkscape:cy="6.440678"
     inkscape:window-x="0"
     inkscape:window-y="0"
     inkscape:window-maximized="0"
     inkscape:current-layer="svg18"
     inkscape:pagecheckerboard="0" />
  <linearGradient
     id="g0"
     x1="0%"
     y1="0%"
     x2="0%"
     y2="100%">
    <stop
       offset="0%"
       style="stop-color:#7090b0;stop-opacity:1"
       id="stop2" />
    <stop
       offset="100%"
       style="stop-color:#90c0ff;stop-opacity:1"
       id="stop4" />
  </linearGradient>
  <linearGradient
     id="g1"
     x1="0%"
     y1="0%"
     x2="100%"
     y2="100%">
    <stop
       offset="0%"
       style="stop-color:#e7e9ec;stop-opacity:1"
       id="stop7" />
    <stop
       offset="100%"
       style="stop-color:#b0ddff;stop-opacity:1"
       id="stop9" />
  </linearGradient>
  <linearGradient
     id="g2"
     x1="0%"
     y1="0%"
     x2="100%"
     y2="0%">
    <stop
       offset="0%"
       style="stop-color:#606060;stop-opacity:1"
       id="stop23" />
    <stop
       offset="100%"
       style="stop-color:#303030;stop-opacity:1"
       id="stop25" />
  </linearGradient>
  <linearGradient
     id="g3"
     x1="0%"
     y1="0%"
     x2="0%"
     y2="100%">
    <stop
       offset="0%"
       style="stop-color:#00a0e8;stop-opacity:1"
       id="stop28" />
    <stop
       offset="100%"
       style="stop-color:#0061e0;stop-opacity:1"
       id="stop30" />
  </linearGradient>
  <linearGradient
     id="g4"
     x1="0%"
     y1="0%"
     x2="0%"
     y2="100%">
    <stop
       offset="0%"
       style="stop-color:#60e080;stop-opacity:1"
       id="stop33" />
    <stop
       offset="100%"
       style="stop-color:#40a060;stop-opacity:1"
       id="stop35" />
  </linearGradient>
  <style
     id="style12">
    .ac-color {
      fill: url(#g0);
    }
    .ac-color1 {
      fill: url(#g1);
    }
    .ac-color2 {
      fill: url(#g2);
    }
    .ac-color3 {
      fill: url(#g3);
    }
    .ac-color4 {
      fill: url(#g4);
    }
    .ac-color5 {
      fill: #000;
      opacity: 0.3;
    }
  </style>
  <path
     d="M4 0 12 0Q16 0 16 4L16 12Q16 16 12 16L4 16Q0 16 0 12L0 4Q0 0 4 0"
     class="ac-color"
     id="path14" />
  <path
     d="M4 0 11 0Q14 0 14 3L14 13Q14 16 11 16L4 16Q0 16 0 12L0 4Q0 0 4 0"
     class="ac-color1"
     id="path16"
     style="filter:url(#filter92)" />
  <path
     d="M2.5 3 6.5 3Q7 3 7 3.5 7 4 6.5 4L2.5 4Q2 4 2 3.5 2 3 2.5 3M2.5 5 5.5 5Q6 5 6 5.5 6 6 5.5 6L2.5 6Q2 6 2 5.5 2 5 2.5 5M7.5 8 11.5 8Q12 8 12 8.5 12 9 11.5 9L7.5 9Q7 9 7 8.5 7 8 7.5 8M7.5 10 10.5 10Q11 10 11 10.5 11 11 10.5 11L7.5 11Q7 11 7 10.5 7 10 7.5 10"
     class="ac-color2"
     id="path18" />
  <path
     d="M8.5 3 11.5 3Q12 3 12 3.5L12 5.5Q12 6 11.5 6L8.5 6Q8 6 8 5.5L8 3.5Q8 3 8.5 3"
     class="ac-color3"
     id="path20" />
  <path
     d="M2.5 8 5.5 8Q6 8 6 8.5L6 10.5Q6 11 5.5 11L2.5 11Q2 11 2 10.5L2 8.5Q2 8 2.5 8"
     class="ac-color4"
     id="path22" />
  <path
     d="M5.5 13 8.5 13Q9 13 9 13.5 9 14 8.5 14L5.5 14Q5 14 5 13.5 5 13 5.5 13"
     class="ac-color5"
     id="path24" />
</svg>
