<?xml version="1.0" encoding="UTF-8" standalone="no"?>
<svg viewBox="0 0 22 22" width="22" height="22" version="1.1" id="svg18" sodipodi:docname="account.svg"
  inkscape:version="1.1.2 (0a00cf5339, 2022-02-04)" xmlns:inkscape="http://www.inkscape.org/namespaces/inkscape"
  xmlns:sodipodi="http://sodipodi.sourceforge.net/DTD/sodipodi-0.dtd" xmlns="http://www.w3.org/2000/svg"
  xmlns:svg="http://www.w3.org/2000/svg" xmlns:rdf="http://www.w3.org/1999/02/22-rdf-syntax-ns#"
  xmlns:cc="http://creativecommons.org/ns#" xmlns:dc="http://purl.org/dc/elements/1.1/">
  <defs id="defs16">
    <filter style="color-interpolation-filters:sRGB;" inkscape:label="Drop Shadow" id="filter28" x="-0.017142857"
      y="-0.01593361" width="1.0342857" height="1.0451452">
      <feFlood flood-opacity="0.501961" flood-color="rgb(0,0,0)" result="flood" id="feFlood18" />
      <feComposite in="flood" in2="SourceGraphic" operator="in" result="composite1" id="feComposite20" />
      <feGaussianBlur in="composite1" stdDeviation="0.1" result="blur" id="feGaussianBlur22" />
      <feOffset dx="0" dy="0.2" result="offset" id="feOffset24" />
      <feComposite in="SourceGraphic" in2="offset" operator="over" result="composite2" id="feComposite26" />
    </filter>
  </defs>
  <metadata id="metadata24">
    <rdf:RDF>
      <cc:Work rdf:about="">
        <dc:format>image/svg+xml</dc:format>
        <dc:type rdf:resource="http://purl.org/dc/dcmitype/StillImage" />
      </cc:Work>
    </rdf:RDF>
  </metadata>
  <sodipodi:namedview pagecolor="#ffffff" bordercolor="#666666" borderopacity="1" objecttolerance="10"
    gridtolerance="10" guidetolerance="10" inkscape:pageopacity="0" inkscape:pageshadow="2" inkscape:window-width="913"
    inkscape:window-height="480" id="namedview20" showgrid="false" inkscape:zoom="6.6802146" inkscape:cx="11.227184"
    inkscape:cy="5.8381358" inkscape:window-x="26" inkscape:window-y="23" inkscape:window-maximized="0"
    inkscape:current-layer="svg18" inkscape:pagecheckerboard="0" />
  <linearGradient id="g0" x1="0%" y1="0%" x2="0%" y2="100%">
    <stop offset="0%" style="stop-color:#00ddff;stop-opacity:1" id="stop2" />
    <stop offset="100%" style="stop-color:#0061e0;stop-opacity:1" id="stop4" />
  </linearGradient>
  <linearGradient id="g1" x1="0%" y1="0%" x2="100%" y2="100%">
    <stop offset="0%" style="stop-color:#e7e9ec;stop-opacity:1" id="stop7" />
    <stop offset="100%" style="stop-color:#b0d0ff;stop-opacity:1" id="stop9" />
  </linearGradient>
  <style id="style12">
    .ac-color {
      fill: url(#g0);
    }

    .ac-color1 {
      fill: url(#g1);
    }
  </style>
  <path d="M5.5 0 16.5 0Q22 0 22 5.5L22 16.5Q22 22 16.5 22L5.5 22Q0 22 0 16.5L0 5.5Q0 0 5.5 0" class="ac-color"
    id="path14" />
  <g transform="translate(3 3)" id="g13" style="filter:url(#filter28)">
    <path
      d="M 8 0 A 1 1 0 0 0 8 8 A 1 1 0 0 0 8 0 M 8 1 A 1 1 0 0 1 8 7 A 1 1 0 0 1 8 1 M 3 9 L 13 9 Q 15 9 15 11 Q 15 12 14 13 C 11.5 15.75 4.5 15.75 2 13 Q 1 12 1 11 Q 1 9 3 9 M 3 10 Q 2 10 2 11 Q 2 12 3.5 13 C 6 14.25 10 14.25 12.5 13 Q 14 12 14 11 Q 14 10 13 10 L 3 10"
      class="ac-color1" id="path16" />
  </g>
</svg>