<?xml version="1.0" encoding="UTF-8" standalone="no"?>
<svg viewBox="0 0 22 22" width="22" height="22" version="1.1" id="svg18" sodipodi:docname="Bluetooth.svg"
  inkscape:version="1.1.2 (0a00cf5339, 2022-02-04)" xmlns:inkscape="http://www.inkscape.org/namespaces/inkscape"
  xmlns:sodipodi="http://sodipodi.sourceforge.net/DTD/sodipodi-0.dtd" xmlns="http://www.w3.org/2000/svg"
  xmlns:svg="http://www.w3.org/2000/svg" xmlns:rdf="http://www.w3.org/1999/02/22-rdf-syntax-ns#"
  xmlns:cc="http://creativecommons.org/ns#" xmlns:dc="http://purl.org/dc/elements/1.1/">
  <metadata id="metadata24">
    <rdf:RDF>
      <cc:Work rdf:about="">
        <dc:format>image/svg+xml</dc:format>
        <dc:type rdf:resource="http://purl.org/dc/dcmitype/StillImage" />
      </cc:Work>
    </rdf:RDF>
  </metadata>
  <defs id="defs16">
    <filter style="color-interpolation-filters:sRGB;" inkscape:label="Drop Shadow" id="filter28" x="-0.017142857"
      y="-0.01593361" width="1.0342857" height="1.0451452">
      <feFlood flood-opacity="0.501961" flood-color="rgb(0,0,0)" result="flood" id="feFlood18" />
      <feComposite in="flood" in2="SourceGraphic" operator="in" result="composite1" id="feComposite20" />
      <feGaussianBlur in="composite1" stdDeviation="0.1" result="blur" id="feGaussianBlur22" />
      <feOffset dx="0" dy="0.2" result="offset" id="feOffset24" />
      <feComposite in="SourceGraphic" in2="offset" operator="over" result="composite2" id="feComposite26" />
    </filter>
  </defs>
  <sodipodi:namedview pagecolor="#ffffff" bordercolor="#666666" borderopacity="1" objecttolerance="10"
    gridtolerance="10" guidetolerance="10" inkscape:pageopacity="0" inkscape:pageshadow="2" inkscape:window-width="913"
    inkscape:window-height="480" id="namedview20" showgrid="false" inkscape:zoom="6.6802146" inkscape:cx="11.227184"
    inkscape:cy="5.8381358" inkscape:window-x="26" inkscape:window-y="23" inkscape:window-maximized="0"
    inkscape:current-layer="svg18" inkscape:pagecheckerboard="0" />
  <linearGradient id="g0" x1="0%" y1="0%" x2="0%" y2="100%">
    <stop offset="0%" style="stop-color:#ffc040;stop-opacity:1" id="stop2" />
    <stop offset="100%" style="stop-color:#c06010;stop-opacity:1" id="stop4" />
  </linearGradient>
  <linearGradient id="g1" x1="0%" y1="0%" x2="100%" y2="100%">
    <stop offset="0%" style="stop-color:#e7e9ec;stop-opacity:1" id="stop7" />
    <stop offset="100%" style="stop-color:#ffd0b0;stop-opacity:1" id="stop9" />
  </linearGradient>
  <style id="style12">
    .ac-color {
      fill: url(#g0);
    }

    .ac-color1 {
      fill: url(#g1);
    }
  </style>
  <path d="M5.5 0 16.5 0Q22 0 22 5.5L22 16.5Q22 22 16.5 22L5.5 22Q0 22 0 16.5L0 5.5Q0 0 5.5 0" class="ac-color"
    id="path14" />
  <g transform="translate(3 3)">
    <path
      d="M12 0A1 1 0 0012 8 1 1 0 0012 0M12 1A1 1 0 0112 7 1 1 0 0112 1M7 3 4 3Q0 3 0 7L0 12Q0 16 4 16L9 16Q13 16 13 12L13 9 12 9 12 12Q12 15 9 15L4 15Q1 15 1 12L1 7Q1 4 4 4L7 4 7 3M3 7 8 7 8 8 3 8 3 7M3 9 10 9 10 10 3 10 3 9M3 11 8 11 8 12 3 12 3 11"
      class="ac-color1" id="path16" style="filter:url(#filter28)" />
  </g>
</svg>