<?xml version="1.0" encoding="UTF-8" standalone="no"?>
<svg viewBox="0 0 22 22" width="22" height="22" version="1.1" id="svg18" sodipodi:docname="Bluetooth.svg"
  inkscape:version="1.1.2 (0a00cf5339, 2022-02-04)" xmlns:inkscape="http://www.inkscape.org/namespaces/inkscape"
  xmlns:sodipodi="http://sodipodi.sourceforge.net/DTD/sodipodi-0.dtd" xmlns="http://www.w3.org/2000/svg"
  xmlns:svg="http://www.w3.org/2000/svg" xmlns:rdf="http://www.w3.org/1999/02/22-rdf-syntax-ns#"
  xmlns:cc="http://creativecommons.org/ns#" xmlns:dc="http://purl.org/dc/elements/1.1/">
  <metadata id="metadata24">
    <rdf:RDF>
      <cc:Work rdf:about="">
        <dc:format>image/svg+xml</dc:format>
        <dc:type rdf:resource="http://purl.org/dc/dcmitype/StillImage" />
      </cc:Work>
    </rdf:RDF>
  </metadata>
  <defs id="defs16">
    <filter style="color-interpolation-filters:sRGB;" inkscape:label="Drop Shadow" id="filter28" x="-0.017142857"
      y="-0.01593361" width="1.0342857" height="1.0451452">
      <feFlood flood-opacity="0.501961" flood-color="rgb(0,0,0)" result="flood" id="feFlood18" />
      <feComposite in="flood" in2="SourceGraphic" operator="in" result="composite1" id="feComposite20" />
      <feGaussianBlur in="composite1" stdDeviation="0.1" result="blur" id="feGaussianBlur22" />
      <feOffset dx="0" dy="0.2" result="offset" id="feOffset24" />
      <feComposite in="SourceGraphic" in2="offset" operator="over" result="composite2" id="feComposite26" />
    </filter>
  </defs>
  <sodipodi:namedview pagecolor="#ffffff" bordercolor="#666666" borderopacity="1" objecttolerance="10"
    gridtolerance="10" guidetolerance="10" inkscape:pageopacity="0" inkscape:pageshadow="2" inkscape:window-width="913"
    inkscape:window-height="480" id="namedview20" showgrid="false" inkscape:zoom="6.6802146" inkscape:cx="11.227184"
    inkscape:cy="5.8381358" inkscape:window-x="26" inkscape:window-y="23" inkscape:window-maximized="0"
    inkscape:current-layer="svg18" inkscape:pagecheckerboard="0" />
  <linearGradient id="g0" x1="0%" y1="0%" x2="0%" y2="100%">
    <stop offset="0%" style="stop-color:#ff6060;stop-opacity:1" id="stop2" />
    <stop offset="100%" style="stop-color:#c00040;stop-opacity:1" id="stop4" />
  </linearGradient>
  <linearGradient id="g1" x1="0%" y1="0%" x2="100%" y2="100%">
    <stop offset="0%" style="stop-color:#e7e9ec;stop-opacity:1" id="stop7" />
    <stop offset="100%" style="stop-color:#ffb0b0;stop-opacity:1" id="stop9" />
  </linearGradient>
  <style id="style12">
    .ac-color {
      fill: url(#g0);
    }

    .ac-color1 {
      fill: url(#g1);
    }
  </style>
  <path d="M5.5 0 16.5 0Q22 0 22 5.5L22 16.5Q22 22 16.5 22L5.5 22Q0 22 0 16.5L0 5.5Q0 0 5.5 0" class="ac-color"
    id="path14" />
  <g transform="translate(3 3)">
    <path d="M5 0 11 0Q13 0 13 2L13 6 3 6 3 2Q3 0 5 0M4 2 4 6 12 6 12 2Q12 1 11 1L11 2 10 2 10 1 5 1Q4 1 4 2M3 6 13 6Q14 6 14 7L14 9Q14 11 12 11L11 11Q10 11 10 12L10 14Q10 16 8 16 6 16 6 14L6 12Q6 11 5 11L4 11Q2 11 2 9L2 7Q2 6 3 6M3 7 3 9Q3 10 4 10L5 10Q7 10 7 12L7 14Q7 15 8 15 9 15 9 14L9 12Q9 10 11 10L12 10Q13 10 13 9L13 7 3 7"
      class="ac-color1" id="path16" style="filter:url(#filter28)" />
  </g>
</svg>